<svg width="33" height="33" viewBox="0 0 33 33" fill="none" xmlns="http://www.w3.org/2000/svg">
<path d="M5.15625 3.60954C5.15642 3.92956 5.05732 4.24176 4.87263 4.50311C4.68793 4.76446 4.42672 4.96209 4.125 5.06876V12.3752L6.3525 18.0336L4.125 23.7189C2.99063 23.7189 2.0625 22.7908 2.0625 21.6585V14.4356C2.06323 14.0743 2.15888 13.7195 2.33987 13.4067C2.52085 13.094 2.78082 12.8343 3.09375 12.6536V5.06876C2.82641 4.97424 2.59019 4.80806 2.41091 4.58837C2.23163 4.36868 2.11619 4.10393 2.0772 3.82307C2.0382 3.54221 2.07716 3.25603 2.18981 2.99581C2.30246 2.73559 2.48448 2.51134 2.71596 2.34757C2.94744 2.1838 3.21948 2.0868 3.50236 2.06718C3.78524 2.04757 4.06806 2.10608 4.31994 2.23633C4.57181 2.36659 4.78303 2.56356 4.93052 2.80574C5.07801 3.04792 5.1561 3.32598 5.15625 3.60954ZM30.9891 3.6611C30.9891 4.36338 30.5353 4.96048 29.9062 5.17498V12.5814C30.5219 12.9393 30.9375 13.6065 30.9375 14.3655V21.5945C30.9375 22.7289 30.0094 23.657 28.875 23.657L25.8431 17.7995L28.875 12.303V5.17498C28.5969 5.08021 28.3503 4.91064 28.1623 4.68489C27.9743 4.45915 27.8522 4.18595 27.8093 3.89532C27.7664 3.60469 27.8045 3.30786 27.9193 3.03743C28.034 2.76701 28.2211 2.53345 28.46 2.3624C28.6988 2.19136 28.9802 2.08945 29.2732 2.06787C29.5662 2.04629 29.8595 2.10587 30.1208 2.24007C30.3821 2.37427 30.6014 2.5779 30.7546 2.82858C30.9078 3.07927 30.9889 3.36732 30.9891 3.6611Z" fill="#27AE60"/>
<path d="M11.3438 4.64063C11.3438 4.23037 11.5067 3.83692 11.7968 3.54682C12.0869 3.25673 12.4804 3.09375 12.8906 3.09375H20.1094C20.4814 3.09296 20.8412 3.22625 21.1229 3.46921C21.4047 3.71217 21.5894 4.04852 21.6433 4.41661C21.6971 4.78471 21.6165 5.15988 21.4163 5.47339C21.216 5.78689 20.9095 6.01772 20.5528 6.12357C20.2672 6.20813 19.965 6.23082 19.6793 6.31538L16.5309 7.24763L13.3134 6.31125C13.0329 6.22875 12.7359 6.20813 12.4554 6.12563C12.1345 6.03154 11.8527 5.83598 11.6523 5.56826C11.4519 5.30053 11.3436 4.97506 11.3438 4.64063Z" fill="#27AE60"/>
<path d="M22.7391 30.9375H10.2609C6.86812 30.9375 4.125 28.1944 4.125 24.8016V12.4059C4.125 8.97187 6.90937 6.1875 10.3434 6.1875H22.6669C26.0906 6.1875 28.875 8.97187 28.875 12.4059V24.8119C28.875 28.1944 26.1319 30.9375 22.7391 30.9375Z" fill="#CDC4D6"/>
<path d="M9.53597 19.0781H23.464C25.8668 19.0781 27.8438 17.0992 27.8438 14.6953C27.8418 13.534 27.3799 12.4208 26.559 11.5994C25.7382 10.778 24.6253 10.3152 23.464 10.3125H9.53597C8.3747 10.3152 7.26181 10.778 6.44096 11.5994C5.6201 12.4208 5.15816 13.534 5.15625 14.6953C5.15816 15.8566 5.6201 16.9698 6.44096 17.7912C7.26181 18.6127 8.3747 19.0754 9.53597 19.0781ZM13.893 26.8125H19.107C19.9444 26.8125 20.625 26.1174 20.625 25.2656C20.625 24.4138 19.9444 23.7188 19.107 23.7188H13.893C13.0556 23.7188 12.375 24.4138 12.375 25.2656C12.375 26.1174 13.0556 26.8125 13.893 26.8125Z" fill="#212121"/>
<path d="M10.5703 12.375C9.85875 12.375 9.28125 12.9525 9.28125 13.6641V16.2422C9.28125 16.5841 9.41706 16.9119 9.65881 17.1537C9.90055 17.3954 10.2284 17.5312 10.5703 17.5312C10.9122 17.5312 11.2401 17.3954 11.4818 17.1537C11.7236 16.9119 11.8594 16.5841 11.8594 16.2422V13.6641C11.8594 12.9525 11.2819 12.375 10.5703 12.375ZM22.4297 12.375C21.7181 12.375 21.1406 12.9525 21.1406 13.6641V16.2422C21.1406 16.5841 21.2764 16.9119 21.5182 17.1537C21.7599 17.3954 22.0878 17.5312 22.4297 17.5312C22.7716 17.5312 23.0994 17.3954 23.3412 17.1537C23.5829 16.9119 23.7188 16.5841 23.7188 16.2422V13.6641C23.7188 12.9525 23.1412 12.375 22.4297 12.375Z" fill="#27AE60"/>
</svg>
