<svg width="41" height="41" viewBox="0 0 41 41" fill="none" xmlns="http://www.w3.org/2000/svg">
<path fill-rule="evenodd" clip-rule="evenodd" d="M8.81295 4.0057L6.35705 13.6346C5.43059 13.8232 4.59779 14.3262 3.99968 15.0584C3.40157 15.7906 3.0749 16.7071 3.075 17.6525V23.575C3.075 24.6624 3.50696 25.7052 4.27586 26.4741C5.04476 27.243 6.08761 27.675 7.175 27.675H33.825C34.9124 27.675 35.9552 27.243 36.7241 26.4741C37.493 25.7052 37.925 24.6624 37.925 23.575V17.6525C37.9251 16.7071 37.5984 15.7906 37.0003 15.0584C36.4022 14.3262 35.5694 13.8232 34.6429 13.6346L32.1891 4.0057C32.0045 3.28095 31.6252 2.6205 31.0922 2.09583C30.5592 1.57117 29.8929 1.20228 29.1653 1.0291C26.3278 0.348462 23.4201 0.00306763 20.502 0C17.6102 0 14.721 0.343034 11.8346 1.0291C11.1071 1.20228 10.4408 1.57117 9.90778 2.09583C9.37481 2.6205 8.99754 3.28095 8.81295 4.0057ZM7.17705 15.6025C7.40487 15.6028 7.62629 15.5272 7.80633 15.3876C7.98638 15.248 8.1148 15.0525 8.1713 14.8317L10.7994 4.51C10.8918 4.1475 11.0816 3.81718 11.3483 3.55484C11.6149 3.2925 11.9483 3.10813 12.3123 3.0217C14.9948 2.37856 17.7435 2.05243 20.502 2.05C23.2285 2.05 25.9585 2.37458 28.6918 3.02375C29.0554 3.11051 29.3883 3.29502 29.6546 3.55734C29.9209 3.81967 30.1104 4.1498 30.2026 4.51205L32.8307 14.8317C32.8872 15.0525 33.0157 15.248 33.1957 15.3876C33.3758 15.5272 33.5972 15.6028 33.825 15.6025C34.3687 15.6025 34.8901 15.8185 35.2746 16.203C35.659 16.5874 35.875 17.1089 35.875 17.6525V23.575C35.875 24.1187 35.659 24.6401 35.2746 25.0246C34.8901 25.409 34.3687 25.625 33.825 25.625H7.175C6.6313 25.625 6.10988 25.409 5.72543 25.0246C5.34098 24.6401 5.125 24.1187 5.125 23.575V17.6525C5.125 17.1089 5.34098 16.5874 5.72543 16.203C6.10988 15.8185 6.63335 15.6025 7.17705 15.6025Z" fill="#27AE60"/>
<path fill-rule="evenodd" clip-rule="evenodd" d="M11.277 28.7C11.277 27.8845 10.9531 27.1023 10.3764 26.5256C9.79972 25.949 9.01759 25.625 8.20204 25.625C7.3865 25.625 6.60437 25.949 6.02769 26.5256C5.45102 27.1023 5.12704 27.8845 5.12704 28.7V30.75C5.12704 31.5655 5.45102 32.3477 6.02769 32.9244C6.60437 33.501 7.3865 33.825 8.20204 33.825C9.01759 33.825 9.79972 33.501 10.3764 32.9244C10.9531 32.3477 11.277 31.5655 11.277 30.75V28.7ZM7.17704 28.7C7.17704 28.4282 7.28504 28.1674 7.47726 27.9752C7.66949 27.783 7.9302 27.675 8.20204 27.675C8.47389 27.675 8.7346 27.783 8.92683 27.9752C9.11905 28.1674 9.22704 28.4282 9.22704 28.7V30.75C9.22704 31.0218 9.11905 31.2826 8.92683 31.4748C8.7346 31.667 8.47389 31.775 8.20204 31.775C7.9302 31.775 7.66949 31.667 7.47726 31.4748C7.28504 31.2826 7.17704 31.0218 7.17704 30.75V28.7ZM35.877 28.7C35.877 27.8845 35.5531 27.1023 34.9764 26.5256C34.3997 25.949 33.6176 25.625 32.802 25.625C31.9865 25.625 31.2044 25.949 30.6277 26.5256C30.051 27.1023 29.727 27.8845 29.727 28.7V30.75C29.727 31.5655 30.051 32.3477 30.6277 32.9244C31.2044 33.501 31.9865 33.825 32.802 33.825C33.6176 33.825 34.3997 33.501 34.9764 32.9244C35.5531 32.3477 35.877 31.5655 35.877 30.75V28.7ZM31.777 28.7C31.777 28.4282 31.885 28.1674 32.0773 27.9752C32.2695 27.783 32.5302 27.675 32.802 27.675C33.0739 27.675 33.3346 27.783 33.5268 27.9752C33.7191 28.1674 33.827 28.4282 33.827 28.7V30.75C33.827 31.0218 33.7191 31.2826 33.5268 31.4748C33.3346 31.667 33.0739 31.775 32.802 31.775C32.5302 31.775 32.2695 31.667 32.0773 31.4748C31.885 31.2826 31.777 31.0218 31.777 30.75V28.7ZM30.752 23.575C31.5676 23.575 32.3497 23.251 32.9264 22.6744C33.5031 22.0977 33.827 21.3155 33.827 20.5C33.827 19.6845 33.5031 18.9023 32.9264 18.3256C32.3497 17.749 31.5676 17.425 30.752 17.425C29.9365 17.425 29.1544 17.749 28.5777 18.3256C28.001 18.9023 27.677 19.6845 27.677 20.5C27.677 21.3155 28.001 22.0977 28.5777 22.6744C29.1544 23.251 29.9365 23.575 30.752 23.575ZM30.752 19.475C31.0239 19.475 31.2846 19.583 31.4768 19.7752C31.6691 19.9674 31.777 20.2282 31.777 20.5C31.777 20.7718 31.6691 21.0326 31.4768 21.2248C31.2846 21.417 31.0239 21.525 30.752 21.525C30.4802 21.525 30.2195 21.417 30.0273 21.2248C29.835 21.0326 29.727 20.7718 29.727 20.5C29.727 20.2282 29.835 19.9674 30.0273 19.7752C30.2195 19.583 30.4802 19.475 30.752 19.475ZM10.252 23.575C11.0676 23.575 11.8497 23.251 12.4264 22.6744C13.0031 22.0977 13.327 21.3155 13.327 20.5C13.327 19.6845 13.0031 18.9023 12.4264 18.3256C11.8497 17.749 11.0676 17.425 10.252 17.425C9.4365 17.425 8.65437 17.749 8.07769 18.3256C7.50102 18.9023 7.17704 19.6845 7.17704 20.5C7.17704 21.3155 7.50102 22.0977 8.07769 22.6744C8.65437 23.251 9.4365 23.575 10.252 23.575ZM10.252 19.475C10.5239 19.475 10.7846 19.583 10.9768 19.7752C11.1691 19.9674 11.277 20.2282 11.277 20.5C11.277 20.7718 11.1691 21.0326 10.9768 21.2248C10.7846 21.417 10.5239 21.525 10.252 21.525C9.9802 21.525 9.71949 21.417 9.52726 21.2248C9.33504 21.0326 9.22704 20.7718 9.22704 20.5C9.22704 20.2282 9.33504 19.9674 9.52726 19.7752C9.71949 19.583 9.9802 19.475 10.252 19.475ZM25.9304 5.125H15.0736C14.3854 5.12495 13.717 5.35581 13.1755 5.78063C12.6339 6.20545 12.2506 6.79966 12.0868 7.46815L11.0823 11.5682C10.9714 12.0209 10.9648 12.4929 11.0631 12.9485C11.1614 13.4041 11.362 13.8314 11.6497 14.1981C11.9374 14.5648 12.3047 14.8613 12.7239 15.0652C13.143 15.2691 13.603 15.375 14.0691 15.375H26.9349C27.401 15.375 27.8611 15.2691 28.2802 15.0652C28.6994 14.8613 29.0667 14.5648 29.3544 14.1981C29.6421 13.8314 29.8427 13.4041 29.941 12.9485C30.0393 12.4929 30.0327 12.0209 29.9218 11.5682L28.9173 7.46815C28.7534 6.79932 28.3698 6.20485 27.8278 5.78C27.2859 5.35515 26.6191 5.12449 25.9304 5.125ZM14.0773 7.95605C14.132 7.73311 14.2599 7.53495 14.4405 7.39333C14.6212 7.25172 14.8441 7.17483 15.0736 7.175H25.9304C26.1596 7.17529 26.3821 7.25238 26.5623 7.39397C26.7426 7.53555 26.8701 7.73345 26.9247 7.95605L27.9292 12.0561C27.9661 12.2068 27.9684 12.3641 27.9357 12.5158C27.903 12.6676 27.8362 12.81 27.7405 12.9322C27.6447 13.0544 27.5225 13.1532 27.3829 13.2213C27.2434 13.2893 27.0902 13.3248 26.9349 13.325H14.0691C13.9137 13.3251 13.7603 13.2899 13.6205 13.222C13.4807 13.154 13.3582 13.0552 13.2622 12.933C13.1662 12.8107 13.0993 12.6683 13.0665 12.5163C13.0337 12.3644 13.0359 12.207 13.0728 12.0561L14.0773 7.95605Z" fill="#27AE60"/>
</svg>
