<svg width="31" height="22" viewBox="0 0 31 22" fill="none" xmlns="http://www.w3.org/2000/svg">
<path d="M20.7812 15.3125C20.4912 15.3125 20.213 15.4277 20.0079 15.6329C19.8027 15.838 19.6875 16.1162 19.6875 16.4062C19.6875 16.6963 19.8027 16.9745 20.0079 17.1796C20.213 17.3848 20.4912 17.5 20.7812 17.5H25.1562C25.4463 17.5 25.7245 17.3848 25.9296 17.1796C26.1348 16.9745 26.25 16.6963 26.25 16.4062C26.25 16.1162 26.1348 15.838 25.9296 15.6329C25.7245 15.4277 25.4463 15.3125 25.1562 15.3125H20.7812ZM0 5.46875C0 4.01835 0.57617 2.62735 1.60176 1.60176C2.62735 0.57617 4.01835 0 5.46875 0H25.1562C26.6067 0 27.9977 0.57617 29.0232 1.60176C30.0488 2.62735 30.625 4.01835 30.625 5.46875V16.4062C30.625 17.8567 30.0488 19.2477 29.0232 20.2732C27.9977 21.2988 26.6067 21.875 25.1562 21.875H5.46875C4.01835 21.875 2.62735 21.2988 1.60176 20.2732C0.57617 19.2477 0 17.8567 0 16.4062V5.46875ZM28.4375 6.5625V5.46875C28.4375 4.59851 28.0918 3.76391 27.4764 3.14856C26.8611 2.5332 26.0265 2.1875 25.1562 2.1875H5.46875C4.59851 2.1875 3.76391 2.5332 3.14856 3.14856C2.5332 3.76391 2.1875 4.59851 2.1875 5.46875V6.5625H28.4375ZM2.1875 8.75V16.4062C2.1875 17.2765 2.5332 18.1111 3.14856 18.7264C3.76391 19.3418 4.59851 19.6875 5.46875 19.6875H25.1562C26.0265 19.6875 26.8611 19.3418 27.4764 18.7264C28.0918 18.1111 28.4375 17.2765 28.4375 16.4062V8.75H2.1875Z" fill="#27AE60"/>
</svg>
