<svg width="43" height="42" viewBox="0 0 43 42" fill="none" xmlns="http://www.w3.org/2000/svg">
<path d="M25.5035 15.75L22.8446 8.6695C22.7086 8.30827 22.4625 7.99647 22.1394 7.77617C21.8163 7.55587 21.4318 7.43766 21.0377 7.4375H9.83983C9.03358 7.4375 8.31154 7.92925 8.03383 8.6695L5.3741 15.75" stroke="#27AE60" stroke-linecap="round" stroke-linejoin="round"/>
<path d="M11.6458 11.8125C12.388 11.8125 12.9896 11.2249 12.9896 10.5C12.9896 9.77513 12.388 9.1875 11.6458 9.1875C10.9037 9.1875 10.3021 9.77513 10.3021 10.5C10.3021 11.2249 10.9037 11.8125 11.6458 11.8125Z" stroke="#27AE60" stroke-width="0.833333" stroke-linecap="round" stroke-linejoin="round"/>
<path d="M8.60179 15.75L8.97535 13.7673C9.02065 13.5255 9.15134 13.3069 9.34467 13.1496C9.53799 12.9922 9.7817 12.9061 10.0333 12.9063H13.2583C13.5098 12.9061 13.7534 12.9921 13.9468 13.1492C14.1401 13.3064 14.2708 13.5248 14.3163 13.7664L14.6899 15.75" stroke="#27AE60" stroke-width="0.833333" stroke-linecap="round" stroke-linejoin="round"/>
<path d="M10.3021 15.75C10.3021 15.4019 10.4437 15.0681 10.6957 14.8219C10.9477 14.5758 11.2894 14.4375 11.6458 14.4375C12.0022 14.4375 12.344 14.5758 12.596 14.8219C12.848 15.0681 12.9896 15.4019 12.9896 15.75M6.27083 23.3625V25.375C6.27083 25.491 6.31802 25.6023 6.40203 25.6844C6.48603 25.7664 6.59996 25.8125 6.71875 25.8125H9.85417C9.91299 25.8125 9.97123 25.8012 10.0256 25.7792C10.0799 25.7572 10.1293 25.725 10.1709 25.6844C10.2125 25.6437 10.2455 25.5955 10.268 25.5424C10.2905 25.4893 10.3021 25.4325 10.3021 25.375V23.3625M14.7812 23.3625H4.92708C4.43079 23.3625 4.03125 22.9723 4.03125 22.4875V16.625C4.03125 16.1402 4.43079 15.75 4.92708 15.75H25.9792C26.4755 15.75 26.875 16.1402 26.875 16.625V19.8625" stroke="#27AE60" stroke-linecap="round" stroke-linejoin="round"/>
<path d="M8.51042 20.8687C9.25255 20.8687 9.85417 20.281 9.85417 19.5562C9.85417 18.8313 9.25255 18.2437 8.51042 18.2437C7.76829 18.2437 7.16667 18.8313 7.16667 19.5562C7.16667 20.281 7.76829 20.8687 8.51042 20.8687Z" stroke="#27AE60" stroke-linecap="round" stroke-linejoin="round"/>
<path d="M21.0888 19.8624C21.0643 19.7621 21.052 19.6593 21.0521 19.5562C21.0521 19.2081 21.1937 18.8742 21.4457 18.6281C21.6977 18.3819 22.0395 18.2437 22.3958 18.2437C22.7522 18.2437 23.094 18.3819 23.346 18.6281C23.598 18.8742 23.7396 19.2081 23.7396 19.5562C23.7394 19.6593 23.7268 19.7621 23.702 19.8624" stroke="#27AE60" stroke-width="0.833333" stroke-linecap="round" stroke-linejoin="round"/>
<path d="M38.0729 19.8623H15.6771C15.1823 19.8623 14.7812 20.2541 14.7812 20.7373V33.6873C14.7812 34.1706 15.1823 34.5623 15.6771 34.5623H38.0729C38.5677 34.5623 38.9688 34.1706 38.9688 33.6873V20.7373C38.9688 20.2541 38.5677 19.8623 38.0729 19.8623Z" stroke="#27AE60" stroke-linecap="round" stroke-linejoin="round"/>
<path d="M17.2448 22.6187C17.6159 22.6187 17.9167 22.3248 17.9167 21.9624C17.9167 21.6 17.6159 21.3062 17.2448 21.3062C16.8737 21.3062 16.5729 21.6 16.5729 21.9624C16.5729 22.3248 16.8737 22.6187 17.2448 22.6187Z" fill="#27AE60"/>
<path d="M19.0365 22.6187C19.4075 22.6187 19.7083 22.3248 19.7083 21.9624C19.7083 21.6 19.4075 21.3062 19.0365 21.3062C18.6654 21.3062 18.3646 21.6 18.3646 21.9624C18.3646 22.3248 18.6654 22.6187 19.0365 22.6187Z" fill="#27AE60"/>
<path d="M22.1719 22.6187C22.5429 22.6187 22.8438 22.3248 22.8438 21.9624C22.8438 21.6 22.5429 21.3062 22.1719 21.3062C21.8008 21.3062 21.5 21.6 21.5 21.9624C21.5 22.3248 21.8008 22.6187 22.1719 22.6187Z" fill="#27AE60"/>
<path d="M23.9635 22.6187C24.3346 22.6187 24.6354 22.3248 24.6354 21.9624C24.6354 21.6 24.3346 21.3062 23.9635 21.3062C23.5925 21.3062 23.2917 21.6 23.2917 21.9624C23.2917 22.3248 23.5925 22.6187 23.9635 22.6187Z" fill="#27AE60"/>
<path d="M20.6042 28.0874C21.47 28.0874 22.1719 27.4018 22.1719 26.5562C22.1719 25.7105 21.47 25.0249 20.6042 25.0249C19.7384 25.0249 19.0365 25.7105 19.0365 26.5562C19.0365 27.4018 19.7384 28.0874 20.6042 28.0874Z" stroke="#27AE60" stroke-width="0.833333" stroke-linecap="round" stroke-linejoin="round"/>
<path d="M17.0208 32.6812C17.0208 31.7529 17.3984 30.8627 18.0704 30.2063C18.7424 29.5499 19.6538 29.1812 20.6042 29.1812C21.5545 29.1812 22.466 29.5499 23.138 30.2063C23.81 30.8627 24.1875 31.7529 24.1875 32.6812" stroke="#27AE60" stroke-width="0.833333" stroke-linecap="round" stroke-linejoin="round"/>
<path d="M36.7292 27.4312H26.4271V32.6811H36.7292V27.4312ZM36.7292 27.4312V25.6812H29.1146V27.4312H36.7292ZM30.9063 25.6812V27.4312M28.2188 29.1811H34.9375M28.2188 30.9311H34.9375M17.0208 23.9312H24.1875V32.6811H17.0208V23.9312ZM34.9375 21.9624H36.7292V23.7124H34.9375V21.9624Z" stroke="#27AE60" stroke-linecap="round" stroke-linejoin="round"/>
</svg>
