<svg width="35" height="41" viewBox="0 0 35 41" fill="none" xmlns="http://www.w3.org/2000/svg">
<path d="M9.9375 10.875H24.9375M9.9375 20.25H24.9375M9.9375 29.625H17.4375M33.375 24V16.5C33.375 9.42938 33.375 5.89313 31.1775 3.6975C28.98 1.50187 25.4456 1.5 18.375 1.5H16.5C9.42938 1.5 5.89313 1.5 3.6975 3.6975C1.50187 5.895 1.5 9.42938 1.5 16.5V24C1.5 31.0706 1.5 34.6069 3.6975 36.8025C5.895 38.9981 9.42938 39 16.5 39H18.375C25.4456 39 28.9819 39 31.1775 36.8025C33.3731 34.605 33.375 31.0706 33.375 24Z" stroke="#27AE60" stroke-width="3" stroke-linecap="round" stroke-linejoin="round"/>
</svg>
