<svg width="29" height="32" viewBox="0 0 29 32" fill="none" xmlns="http://www.w3.org/2000/svg">
<path d="M1.25 12.9167C1.25 7.41729 1.25 4.66687 2.95917 2.95917C4.66833 1.25146 7.41729 1.25 12.9167 1.25H15.8333C21.3327 1.25 24.0831 1.25 25.7908 2.95917C27.4985 4.66833 27.5 7.41729 27.5 12.9167V18.75C27.5 24.2494 27.5 26.9998 25.7908 28.7075C24.0817 30.4152 21.3327 30.4167 15.8333 30.4167H12.9167C7.41729 30.4167 4.66687 30.4167 2.95917 28.7075C1.25146 26.9983 1.25 24.2494 1.25 18.75V12.9167Z" stroke="#27AE60" stroke-width="2.5"/>
<path d="M8.54166 12.9165H20.2083M8.54166 18.7498H15.8333" stroke="#14AE5C" stroke-width="2.5" stroke-linecap="round"/>
</svg>
