<svg width="343" height="354" viewBox="0 0 343 354" fill="none" xmlns="http://www.w3.org/2000/svg">
<path d="M343 270.739H0V270.916H343V270.739Z" fill="#EBEBEB"/>
<path d="M297.58 278.272H274.86V278.449H297.58V278.272Z" fill="#EBEBEB"/>
<path d="M214.766 278.187H208.805V278.364H214.766V278.187Z" fill="#EBEBEB"/>
<path d="M308.631 282.131H295.467V282.308H308.631V282.131Z" fill="#EBEBEB"/>
<path d="M78.6156 284.481H48.9872V284.658H78.6156V284.481Z" fill="#EBEBEB"/>
<path d="M76.0705 276.75H71.7281V276.927H76.0705V276.75Z" fill="#EBEBEB"/>
<path d="M170.437 277.508H128.659V277.685H170.437V277.508Z" fill="#EBEBEB"/>
<path d="M162.582 239.162H30.1222C29.0846 239.16 28.09 238.734 27.3569 237.976C26.6238 237.218 26.212 236.191 26.212 235.12V42.9472C26.2211 41.8824 26.6368 40.8643 27.3689 40.114C28.1011 39.3636 29.0905 38.9418 30.1222 38.9399H162.582C163.621 38.9399 164.617 39.3659 165.352 40.124C166.086 40.8822 166.499 41.9104 166.499 42.9826V235.12C166.499 236.192 166.086 237.22 165.352 237.978C164.617 238.736 163.621 239.162 162.582 239.162ZM30.1222 39.0815C29.13 39.0834 28.1791 39.4915 27.4782 40.2163C26.7772 40.941 26.3835 41.9232 26.3835 42.9472V235.12C26.3835 236.144 26.7772 237.126 27.4782 237.851C28.1791 238.575 29.13 238.983 30.1222 238.985H162.582C163.575 238.983 164.526 238.576 165.229 237.851C165.931 237.126 166.326 236.144 166.328 235.12V42.9472C166.326 41.9226 165.931 40.9404 165.229 40.2158C164.526 39.4913 163.575 39.0834 162.582 39.0815H30.1222Z" fill="#EBEBEB"/>
<path d="M310.971 239.162H178.504C177.466 239.16 176.471 238.734 175.736 237.976C175.002 237.218 174.589 236.191 174.587 235.12V42.9472C174.598 41.8818 175.015 40.8636 175.748 40.1135C176.482 39.3634 177.472 38.9417 178.504 38.9399H310.971C312.001 38.9436 312.989 39.3663 313.72 40.1164C314.45 40.8666 314.865 41.8836 314.874 42.9472V235.12C314.874 236.189 314.463 237.216 313.732 237.973C313 238.731 312.007 239.159 310.971 239.162ZM178.504 39.0815C177.511 39.0834 176.56 39.4913 175.858 40.2158C175.156 40.9404 174.76 41.9226 174.759 42.9472V235.12C174.76 236.144 175.156 237.126 175.858 237.851C176.56 238.576 177.511 238.983 178.504 238.985H310.971C311.964 238.983 312.915 238.576 313.617 237.851C314.319 237.126 314.714 236.144 314.716 235.12V42.9472C314.714 41.9226 314.319 40.9404 313.617 40.2158C312.915 39.4913 311.964 39.0834 310.971 39.0815H178.504Z" fill="#EBEBEB"/>
<path d="M294.219 68.2017H48.7814V173.616H294.219V68.2017Z" fill="#F0F0F0"/>
<path d="M289.417 168.667V73.1646L53.5834 73.1646V168.667H289.417Z" fill="#FAFAFA"/>
<path d="M84.6318 168.66L108.82 73.1575H126.656L102.468 168.66H84.6318Z" fill="white"/>
<path d="M106.584 168.66L130.772 73.1575H138.75L114.562 168.66H106.584Z" fill="white"/>
<path d="M145.617 168.66L169.812 73.1575H187.648L163.453 168.66H145.617Z" fill="white"/>
<path d="M190.591 168.66L214.78 73.1575H222.765L198.57 168.66H190.591Z" fill="white"/>
<path d="M116.764 168.667V73.1646H115.543V168.667H116.764Z" fill="#E0E0E0"/>
<path d="M54.8046 168.667L54.8046 73.1646H53.5835L53.5835 168.667H54.8046Z" fill="#E0E0E0"/>
<path d="M115.543 168.667V73.1646H110.741V168.667H115.543Z" fill="#F0F0F0"/>
<path d="M176.302 168.667V73.1646H175.081V168.667H176.302Z" fill="#E0E0E0"/>
<path d="M175.081 168.667V73.1646H170.279V168.667H175.081Z" fill="#F0F0F0"/>
<path d="M235.867 168.66V73.1575H234.646V168.66H235.867Z" fill="#E0E0E0"/>
<path d="M234.646 168.66V73.1575H229.844V168.66H234.646Z" fill="#F0F0F0"/>
<path d="M295.44 173.616V68.2017H294.219V173.616H295.44Z" fill="#E0E0E0"/>
<path d="M298.184 60.9658H44.8164C44.5349 60.9639 44.2655 60.8477 44.0665 60.6423C43.8675 60.4369 43.7549 60.1589 43.7531 59.8684C43.753 59.5767 43.8649 59.2968 44.0641 59.0899C44.2633 58.883 44.5337 58.7658 44.8164 58.7639H298.184C298.466 58.7658 298.737 58.883 298.936 59.0899C299.135 59.2968 299.247 59.5767 299.247 59.8684C299.245 60.1589 299.132 60.4369 298.933 60.6423C298.734 60.8477 298.465 60.9639 298.184 60.9658Z" fill="#E0E0E0"/>
<g opacity="0.6">
<path d="M97.6453 56.6399H45.8111V248.982H97.6453V56.6399Z" fill="#F5F5F5"/>
<path d="M73.8959 250.554H69.5535L70.7746 58.2117H72.716L73.8959 250.554Z" fill="#E6E6E6"/>
<path d="M59.5105 250.554H57.4114L58.0013 58.2117H58.9412L59.5105 250.554Z" fill="#E6E6E6"/>
<path d="M88.3225 250.554H86.2234L86.8133 58.2117H87.7532L88.3225 250.554Z" fill="#E6E6E6"/>
</g>
<g opacity="0.6">
<path d="M296.571 56.6399H244.737V248.982H296.571V56.6399Z" fill="#F5F5F5"/>
<path d="M265.05 250.554H260.707L261.928 58.2117H263.87L265.05 250.554Z" fill="#E6E6E6"/>
<path d="M255.466 250.554H253.374L253.957 58.2117H254.897L255.466 250.554Z" fill="#E6E6E6"/>
<path d="M277.645 250.554H275.552L276.142 58.2117H277.075L277.645 250.554Z" fill="#E6E6E6"/>
<path d="M288.319 250.554H286.227L286.81 58.2117H287.749L288.319 250.554Z" fill="#E6E6E6"/>
</g>
<path d="M223.094 269.536H232.835V211.919H223.094V269.536Z" fill="#E6E6E6"/>
<path d="M110.165 269.536H226.846V211.919H110.165V269.536Z" fill="#F0F0F0"/>
<path d="M224.226 269.536H220.714H115.2V270.739H220.714H224.226H227.8V269.536H224.226Z" fill="#E0E0E0"/>
<path opacity="0.5" d="M113.492 238.773H223.519V215.522H113.492V238.773Z" fill="#FAFAFA"/>
<path opacity="0.5" d="M113.492 265.776H223.519V242.525H113.492V265.776Z" fill="#FAFAFA"/>
<path d="M130.168 227.148C130.168 227.653 130.023 228.147 129.751 228.568C129.479 228.988 129.092 229.316 128.64 229.509C128.187 229.702 127.689 229.753 127.209 229.654C126.729 229.556 126.287 229.312 125.941 228.955C125.595 228.598 125.359 228.142 125.263 227.646C125.168 227.151 125.217 226.637 125.404 226.17C125.592 225.703 125.909 225.303 126.316 225.023C126.723 224.742 127.202 224.592 127.692 224.592C128.017 224.592 128.339 224.658 128.64 224.786C128.94 224.915 129.213 225.103 129.443 225.34C129.673 225.578 129.856 225.859 129.98 226.17C130.104 226.48 130.168 226.812 130.168 227.148Z" fill="#E0E0E0"/>
<path d="M211.789 227.148C211.789 227.653 211.643 228.147 211.371 228.568C211.099 228.988 210.712 229.316 210.26 229.509C209.807 229.702 209.31 229.753 208.829 229.654C208.349 229.556 207.907 229.312 207.561 228.955C207.215 228.598 206.979 228.142 206.883 227.646C206.788 227.151 206.837 226.637 207.024 226.17C207.212 225.703 207.529 225.303 207.936 225.023C208.344 224.742 208.822 224.592 209.312 224.592C209.637 224.592 209.96 224.658 210.26 224.786C210.56 224.915 210.833 225.103 211.063 225.34C211.293 225.578 211.476 225.859 211.6 226.17C211.725 226.48 211.789 226.812 211.789 227.148Z" fill="#E0E0E0"/>
<path d="M127.692 256.706C129.06 256.706 130.168 255.562 130.168 254.151C130.168 252.739 129.06 251.595 127.692 251.595C126.324 251.595 125.216 252.739 125.216 254.151C125.216 255.562 126.324 256.706 127.692 256.706Z" fill="#E0E0E0"/>
<path d="M211.789 254.172C211.789 254.677 211.643 255.171 211.371 255.592C211.099 256.012 210.712 256.34 210.26 256.533C209.807 256.727 209.31 256.777 208.829 256.679C208.349 256.58 207.907 256.337 207.561 255.979C207.215 255.622 206.979 255.166 206.883 254.67C206.788 254.175 206.837 253.661 207.024 253.194C207.212 252.727 207.529 252.328 207.936 252.047C208.344 251.766 208.822 251.616 209.312 251.616C209.969 251.616 210.599 251.885 211.063 252.365C211.528 252.844 211.789 253.494 211.789 254.172Z" fill="#E0E0E0"/>
<path d="M170.979 227.148C170.979 227.653 170.833 228.147 170.561 228.568C170.289 228.988 169.902 229.316 169.45 229.509C168.997 229.702 168.499 229.753 168.019 229.654C167.539 229.556 167.097 229.312 166.751 228.955C166.405 228.598 166.169 228.142 166.073 227.646C165.978 227.151 166.027 226.637 166.214 226.17C166.402 225.703 166.719 225.303 167.126 225.023C167.534 224.742 168.012 224.592 168.502 224.592C168.827 224.592 169.149 224.658 169.45 224.786C169.75 224.915 170.023 225.103 170.253 225.34C170.483 225.578 170.666 225.859 170.79 226.17C170.915 226.48 170.979 226.812 170.979 227.148Z" fill="#E0E0E0"/>
<path d="M168.502 256.706C169.87 256.706 170.979 255.562 170.979 254.151C170.979 252.739 169.87 251.595 168.502 251.595C167.135 251.595 166.026 252.739 166.026 254.151C166.026 255.562 167.135 256.706 168.502 256.706Z" fill="#E0E0E0"/>
<path d="M219.63 202.134C219.63 204.729 218.631 207.218 216.853 209.053C215.075 210.888 212.664 211.919 210.149 211.919C207.635 211.919 205.223 210.888 203.445 209.053C201.668 207.218 200.669 204.729 200.669 202.134H219.63Z" fill="#F0F0F0"/>
<path d="M144.671 200.364C144.671 203.423 143.493 206.356 141.398 208.519C139.302 210.682 136.459 211.897 133.496 211.897C130.532 211.897 127.689 210.682 125.594 208.519C123.498 206.356 122.321 203.423 122.321 200.364H144.671Z" fill="#F0F0F0"/>
<path d="M192.711 205.129C192.711 206.93 192.018 208.657 190.784 209.93C189.551 211.203 187.877 211.919 186.132 211.919C184.388 211.919 182.714 211.203 181.481 209.93C180.247 208.657 179.554 206.93 179.554 205.129H192.711Z" fill="#F0F0F0"/>
<path d="M171.5 302.712C244.959 302.712 304.509 299.124 304.509 294.698C304.509 290.272 244.959 286.683 171.5 286.683C98.0414 286.683 38.4915 290.272 38.4915 294.698C38.4915 299.124 98.0414 302.712 171.5 302.712Z" fill="#F5F5F5"/>
<path d="M238.831 81.675C237.37 80.167 234.557 74.4534 237.253 71.763C239.949 69.0726 242.35 71.5152 242.535 72.825C242.72 74.1348 242.227 85.1726 238.831 81.675Z" fill="#263238"/>
<path d="M238.213 287.2L232.088 287.257L230.421 272.644L236.54 272.587L238.213 287.2Z" fill="#FF8B7B"/>
<path d="M232.081 286.528L238.762 286.464C238.886 286.466 239.005 286.508 239.104 286.584C239.202 286.66 239.275 286.767 239.311 286.889L240.93 292.489C240.973 292.619 240.985 292.758 240.965 292.895C240.945 293.031 240.893 293.16 240.814 293.271C240.736 293.382 240.632 293.472 240.512 293.533C240.393 293.594 240.261 293.625 240.127 293.622C237.72 293.622 234.221 293.487 231.209 293.516C227.67 293.516 226.092 293.77 221.935 293.813C219.424 293.813 218.505 291.222 219.568 290.981C224.281 289.855 226.716 289.707 230.661 287.037C231.076 286.728 231.569 286.551 232.081 286.528Z" fill="#263238"/>
<path opacity="0.2" d="M230.421 272.651L231.285 280.184L237.404 280.127L236.547 272.594L230.421 272.651Z" fill="black"/>
<path d="M229.549 287.653C230.21 287.641 230.867 287.558 231.511 287.406C231.542 287.401 231.57 287.386 231.591 287.363C231.612 287.34 231.625 287.31 231.628 287.278C231.631 287.248 231.624 287.217 231.61 287.19C231.595 287.164 231.572 287.143 231.546 287.13C231.257 286.981 228.685 285.714 227.978 286.16C227.913 286.203 227.86 286.262 227.824 286.333C227.788 286.404 227.77 286.483 227.773 286.563C227.771 286.699 227.8 286.834 227.857 286.957C227.914 287.08 227.998 287.187 228.102 287.271C228.531 287.558 229.039 287.693 229.549 287.653ZM231.017 287.2C229.693 287.441 228.685 287.392 228.273 287.052C228.202 286.994 228.145 286.92 228.108 286.835C228.071 286.749 228.055 286.656 228.061 286.563C228.057 286.534 228.061 286.505 228.073 286.478C228.085 286.452 228.105 286.43 228.129 286.414C228.513 286.174 229.968 286.74 231.017 287.2Z" fill="#27AE60"/>
<path d="M231.484 287.448C231.516 287.446 231.547 287.433 231.573 287.413C231.594 287.397 231.609 287.375 231.618 287.349C231.626 287.324 231.627 287.297 231.621 287.271C231.621 287.158 231.141 284.439 229.686 284.609C229.302 284.651 229.193 284.857 229.172 285.013C229.069 285.721 230.64 287.094 231.422 287.434L231.484 287.448ZM229.81 284.899C230.688 284.899 231.127 286.379 231.278 287.023C230.468 286.556 229.398 285.48 229.46 285.055C229.46 285.055 229.46 284.935 229.721 284.906L229.81 284.899Z" fill="#27AE60"/>
<path d="M233.885 113.585L233.254 114.293L232.664 114.894C232.273 115.291 231.868 115.666 231.463 116.034C230.658 116.78 229.835 117.488 228.994 118.158C227.295 119.551 225.508 120.824 223.643 121.967C222.703 122.541 221.736 123.086 220.755 123.603C219.774 124.12 218.738 124.566 217.695 125.019C215.557 125.899 213.329 126.529 211.055 126.895L210.547 126.973C210.217 127.017 209.885 127.038 209.552 127.037C208.788 127.029 208.032 126.876 207.323 126.583C206.619 126.292 205.975 125.867 205.423 125.33C204.983 124.898 204.6 124.407 204.284 123.872C203.846 123.095 203.516 122.258 203.303 121.387C203.137 120.712 203.015 120.026 202.939 119.334C202.814 118.137 202.78 116.932 202.836 115.73C202.884 114.583 202.974 113.478 203.097 112.395C203.358 110.222 203.728 108.147 204.181 106.023C204.634 103.899 205.148 101.938 205.814 99.8848L210.321 100.805C210.156 104.784 209.971 108.862 210.094 112.714C210.117 114.502 210.301 116.285 210.643 118.038C210.711 118.362 210.805 118.679 210.924 118.987C211.02 119.227 211.137 119.376 211.13 119.312C211.09 119.204 211.027 119.108 210.945 119.029C210.758 118.843 210.54 118.694 210.3 118.59C210.054 118.483 209.792 118.419 209.525 118.399C209.401 118.399 209.347 118.399 209.271 118.399H209.347L209.491 118.356C211.116 117.926 212.696 117.333 214.21 116.586C215.794 115.798 217.327 114.904 218.8 113.91C220.288 112.891 221.756 111.786 223.169 110.618C223.855 110.037 224.576 109.429 225.227 108.813L226.229 107.878L226.709 107.418L227.128 107.007L233.885 113.585Z" fill="#FF8B7B"/>
<path d="M237.514 111.085C237.281 104.409 231.971 102.087 225.317 106.639C222.383 108.559 219.559 110.651 216.858 112.905L221.16 127.164C221.16 127.164 229.391 124.467 234.152 119.171C237.356 115.574 237.596 113.358 237.514 111.085Z" fill="#263238"/>
<path opacity="0.2" d="M229.412 113.931C229.412 113.931 225.44 119.794 224.034 126.024C225.987 125.165 227.868 124.142 229.659 122.965L229.412 113.931Z" fill="black"/>
<path d="M210.094 102.922L212.399 97.5483L205.875 95.5801C205.875 95.5801 204.757 98.1501 205.395 102.561L210.094 102.922Z" fill="#FF8B7B"/>
<path d="M213.092 91.2471L207.419 91.948L205.875 95.58L212.399 97.5483L213.092 91.2471Z" fill="#FF8B7B"/>
<path d="M229.453 159.484C229.453 159.484 225.241 195.918 224.775 215.416C224.295 235.672 228.143 276.531 228.143 276.531L239.194 276.29C239.194 276.29 240.525 232.55 242.131 212.506C243.873 190.657 248.263 159.088 248.263 159.088L229.453 159.484Z" fill="#27AE60"/>
<path opacity="0.6" d="M229.453 159.484C229.453 159.484 225.241 195.918 224.775 215.416C224.295 235.672 228.143 276.531 228.143 276.531L239.194 276.29C239.194 276.29 240.525 232.55 242.131 212.506C243.873 190.657 248.263 159.088 248.263 159.088L229.453 159.484Z" fill="white"/>
<path opacity="0.2" d="M242.618 169.8C237.678 181.036 239.002 206.134 241.808 216.896C241.911 215.331 242.021 213.851 242.131 212.485C243.276 198.084 245.561 179.471 247.008 168.447C245.663 166.437 244.161 166.281 242.618 169.8Z" fill="black"/>
<path d="M240.553 276.779L227.56 277.048L226.599 272.594L240.395 272.559L240.553 276.779Z" fill="#27AE60"/>
<path d="M265.509 287.2L259.39 287.257L257.723 272.644L263.842 272.587L265.509 287.2Z" fill="#FF8B7B"/>
<path d="M259.377 286.528L266.065 286.464C266.188 286.467 266.307 286.509 266.405 286.585C266.504 286.662 266.577 286.768 266.614 286.889L268.233 292.489C268.274 292.619 268.285 292.758 268.264 292.893C268.243 293.029 268.192 293.157 268.113 293.268C268.035 293.379 267.932 293.468 267.813 293.53C267.694 293.591 267.563 293.623 267.43 293.622C265.015 293.622 261.524 293.487 258.512 293.516C254.972 293.516 253.388 293.77 249.237 293.813C246.727 293.813 245.807 291.222 246.871 290.981C251.577 289.855 254.012 289.707 257.963 287.037C258.376 286.729 258.867 286.551 259.377 286.528Z" fill="#263238"/>
<path opacity="0.2" d="M257.723 272.651L258.581 280.184L264.707 280.127L263.849 272.594L257.723 272.651Z" fill="black"/>
<path d="M256.852 287.653C257.513 287.64 258.17 287.557 258.814 287.406C258.844 287.401 258.871 287.385 258.891 287.362C258.911 287.339 258.923 287.309 258.924 287.278C258.928 287.248 258.923 287.218 258.91 287.191C258.896 287.164 258.875 287.143 258.848 287.13C258.553 286.981 255.981 285.714 255.281 286.16C255.215 286.202 255.161 286.261 255.124 286.332C255.088 286.403 255.071 286.483 255.075 286.563C255.074 286.699 255.102 286.833 255.158 286.955C255.214 287.078 255.296 287.186 255.398 287.271C255.83 287.558 256.34 287.692 256.852 287.653ZM258.32 287.2C256.996 287.441 255.988 287.392 255.576 287.052C255.505 286.993 255.449 286.919 255.41 286.834C255.372 286.749 255.354 286.657 255.357 286.563C255.353 286.534 255.357 286.505 255.369 286.478C255.381 286.452 255.401 286.43 255.425 286.414C255.809 286.174 257.25 286.74 258.32 287.2Z" fill="#27AE60"/>
<path d="M258.78 287.448C258.801 287.447 258.822 287.442 258.841 287.432C258.86 287.423 258.876 287.409 258.89 287.393C258.903 287.376 258.914 287.356 258.919 287.336C258.925 287.315 258.927 287.293 258.924 287.271C258.924 287.158 258.444 284.439 256.989 284.609C256.605 284.651 256.495 284.857 256.468 285.013C256.372 285.721 257.943 287.094 258.725 287.434L258.78 287.448ZM257.113 284.899C257.984 284.899 258.43 286.379 258.581 287.023C257.771 286.556 256.694 285.48 256.756 285.055C256.756 285.055 256.756 284.935 257.017 284.906L257.113 284.899Z" fill="#27AE60"/>
<path d="M240.237 159.243C240.237 159.243 243.29 198.445 245.519 217.788C247.831 237.909 255.446 276.509 255.446 276.509L266.497 276.269C266.497 276.269 263.465 232.444 262.292 212.365C261.009 190.452 260.68 158.762 260.68 158.762L240.237 159.243Z" fill="#27AE60"/>
<path opacity="0.6" d="M240.237 159.243C240.237 159.243 243.29 198.445 245.519 217.788C247.831 237.909 255.446 276.509 255.446 276.509L266.497 276.269C266.497 276.269 263.465 232.444 262.292 212.365C261.009 190.452 260.68 158.762 260.68 158.762L240.237 159.243Z" fill="white"/>
<path d="M267.855 276.779L254.856 277.048L253.902 272.594L267.698 272.559L267.855 276.779Z" fill="#27AE60"/>
<path d="M228.692 104.89C228.692 104.89 224.171 122.208 229.453 159.484C239.318 159.265 255.885 158.868 260.68 158.776C260.803 153.587 257.092 128.141 261.435 103.609C258.311 103.052 255.151 102.735 251.981 102.66C247.342 102.485 242.697 102.589 238.069 102.972C234.9 103.359 231.765 104 228.692 104.89Z" fill="#263238"/>
<path opacity="0.2" d="M259.541 121.068L254.431 116.7C254.767 120.112 257.758 128.474 259.335 132.708C259.308 128.998 259.342 125.082 259.541 121.068Z" fill="black"/>
<path d="M241.259 114.93L235.682 126.321C235.564 126.561 235.523 126.832 235.564 127.097C235.606 127.362 235.727 127.607 235.912 127.795C236.097 127.984 236.335 128.108 236.592 128.148C236.849 128.189 237.111 128.144 237.342 128.021L240.985 125.953C241.183 125.843 241.407 125.793 241.631 125.808C241.856 125.823 242.071 125.903 242.254 126.038L245.842 128.707C246.048 128.862 246.297 128.944 246.551 128.942C246.806 128.939 247.054 128.852 247.257 128.693C247.46 128.534 247.608 128.312 247.679 128.06C247.751 127.807 247.741 127.538 247.653 127.291L243.461 115.128C243.389 114.897 243.251 114.692 243.067 114.541C242.882 114.39 242.659 114.298 242.424 114.276C242.189 114.255 241.953 114.306 241.746 114.422C241.539 114.538 241.37 114.715 241.259 114.93Z" fill="white"/>
<path d="M250.267 86.4893C249.484 91.1337 248.785 99.6156 251.982 102.625C251.982 102.625 251.049 106.83 242.535 108.289C236.814 106.391 238.069 102.964 238.069 102.964C243.036 101.619 242.823 97.8031 241.884 94.2348L250.267 86.4893Z" fill="#FF8B7B"/>
<path opacity="0.2" d="M246.85 89.6399L241.884 94.1994C242.115 95.0307 242.275 95.8811 242.364 96.7411C244.271 96.4155 246.843 94.1923 247.001 92.1321C247.098 91.2988 247.047 90.4542 246.85 89.6399Z" fill="black"/>
<path d="M252.99 80.7759C251.337 86.8081 250.671 90.4259 247.022 92.8969C241.534 96.6068 234.804 92.1889 234.674 85.7531C234.55 79.9759 237.267 71.0763 243.592 69.9435C244.981 69.6891 246.41 69.8051 247.744 70.2804C249.078 70.7556 250.272 71.5745 251.213 72.6594C252.154 73.7442 252.811 75.0591 253.122 76.4795C253.433 77.8999 253.388 79.3788 252.99 80.7759Z" fill="#FF8B7B"/>
<path d="M249.471 84.4715C248.702 82.5457 248.147 76.202 251.35 74.6444C254.554 73.0868 257.881 76.8888 257.037 78.6871C255.741 81.4766 251.254 88.9319 249.471 84.4715Z" fill="#263238"/>
<path d="M251.385 76.8818C250.596 74.7578 241.191 73.5542 239.874 71.2673C238.309 68.5486 244.724 68.2229 249.135 69.6035C253.01 70.8213 255.597 71.9966 255.144 74.9702C254.89 76.6552 251.385 76.8818 251.385 76.8818Z" fill="#263238"/>
<path d="M253.429 74.6941C253.429 74.6941 255.487 75.2746 256.612 73.717C256.255 75.2605 254.506 76.8181 253.429 74.6941Z" fill="#263238"/>
<path d="M244.01 68.1451C241.184 65.8795 237.335 68.5415 237.699 71.4939C238.062 74.4463 247.591 76.6906 247.591 76.6906C247.591 76.6906 247.763 71.1541 244.01 68.1451Z" fill="#263238"/>
<path d="M237.706 71.5081C238.138 73.5754 239.599 75.1967 242.556 76.4003C240.845 75.0944 239.548 73.2929 238.831 71.2249L237.706 71.5081Z" fill="#263238"/>
<path d="M243.64 80.4713C243.537 80.974 243.201 81.3209 242.885 81.2501C242.57 81.1793 242.398 80.712 242.501 80.2164C242.604 79.7208 242.947 79.3739 243.262 79.4447C243.578 79.5155 243.749 80.004 243.64 80.4713Z" fill="#263238"/>
<path d="M238.193 79.2536C238.083 79.7492 237.747 80.0961 237.431 80.0253C237.116 79.9545 236.944 79.4943 237.047 78.9987C237.15 78.5031 237.493 78.1562 237.809 78.2199C238.124 78.2837 238.296 78.758 238.193 79.2536Z" fill="#263238"/>
<path d="M239.874 79.8909C238.978 81.2836 237.9 82.5416 236.67 83.6291C237.356 84.6416 238.886 84.592 238.886 84.592L239.874 79.8909Z" fill="#FF5652"/>
<path d="M239.997 86.284C240.641 86.4491 241.315 86.451 241.96 86.2895C242.605 86.128 243.202 85.8079 243.701 85.3565C243.715 85.3427 243.726 85.3261 243.733 85.3079C243.741 85.2897 243.745 85.2701 243.745 85.2503C243.745 85.2305 243.741 85.2109 243.733 85.1927C243.726 85.1745 243.715 85.158 243.701 85.1441C243.674 85.1172 243.637 85.1023 243.599 85.1023C243.56 85.1023 243.524 85.1172 243.496 85.1441C243.027 85.551 242.473 85.8391 241.878 85.9854C241.282 86.1317 240.661 86.1321 240.066 85.9866C240.027 85.9782 239.988 85.9857 239.955 86.0077C239.922 86.0296 239.899 86.064 239.891 86.1035C239.883 86.1429 239.89 86.1841 239.911 86.2179C239.932 86.2518 239.966 86.2755 240.004 86.284H239.997Z" fill="#263238"/>
<path d="M245.663 79.0269C245.716 79.0378 245.771 79.0336 245.821 79.0149C245.872 78.9961 245.916 78.9635 245.95 78.9205C245.984 78.8775 246.006 78.8258 246.013 78.771C246.021 78.7161 246.014 78.6602 245.993 78.6092C245.807 78.1731 245.524 77.7889 245.166 77.4885C244.808 77.1881 244.386 76.98 243.935 76.8817C243.858 76.8715 243.781 76.8924 243.72 76.94C243.658 76.9876 243.617 77.0582 243.605 77.1365C243.6 77.1751 243.601 77.2145 243.61 77.2525C243.619 77.2905 243.635 77.3262 243.657 77.3578C243.68 77.3894 243.708 77.4161 243.74 77.4364C243.772 77.4568 243.808 77.4704 243.846 77.4764C244.201 77.5571 244.533 77.7246 244.814 77.9647C245.094 78.2049 245.315 78.5108 245.458 78.857C245.477 78.8998 245.505 78.9375 245.541 78.967C245.577 78.9965 245.619 79.017 245.663 79.0269Z" fill="#263238"/>
<path d="M236.203 76.7828C236.257 76.7981 236.314 76.7962 236.367 76.7772C236.42 76.7583 236.466 76.7231 236.498 76.6766C236.716 76.3758 236.998 76.132 237.324 75.9647C237.649 75.7975 238.008 75.7115 238.371 75.7137C238.448 75.7212 238.524 75.6971 238.583 75.6466C238.642 75.5962 238.68 75.5235 238.687 75.4447C238.694 75.3658 238.671 75.2872 238.622 75.2261C238.573 75.165 238.503 75.1265 238.426 75.119C237.966 75.1049 237.509 75.2057 237.095 75.4127C236.68 75.6198 236.32 75.9271 236.046 76.3084C236.021 76.3387 236.003 76.3738 235.992 76.4115C235.982 76.4492 235.978 76.4888 235.983 76.5279C235.987 76.567 236 76.6047 236.019 76.6388C236.038 76.6728 236.063 76.7026 236.094 76.7261C236.125 76.7545 236.163 76.774 236.203 76.7828Z" fill="#263238"/>
<path d="M262.93 108.437C264.179 110.689 265.221 112.869 266.305 115.114C267.389 117.358 268.363 119.617 269.289 121.925C270.215 124.233 271.114 126.576 271.896 129.005C272.709 131.426 273.396 133.891 273.954 136.389L274.372 138.322C274.555 139.23 274.634 140.156 274.606 141.083C274.548 142.805 274.178 144.5 273.515 146.082C272.35 148.746 270.694 151.151 268.638 153.162C266.804 154.989 264.805 156.632 262.669 158.068C261.633 158.776 260.563 159.427 259.486 160.05C258.409 160.673 257.339 161.247 256.139 161.792L253.861 157.679C254.691 156.971 255.604 156.263 256.454 155.498C257.305 154.733 258.135 153.955 258.958 153.176C260.548 151.654 262.022 150.009 263.369 148.255C264.567 146.751 265.496 145.04 266.113 143.2C266.325 142.515 266.409 141.794 266.36 141.076C266.34 140.787 266.287 140.502 266.202 140.226L265.736 138.641C264.35 134.242 262.7 129.936 260.797 125.748C259.857 123.624 258.855 121.5 257.854 119.376C256.852 117.252 255.796 115.128 254.773 113.11L262.93 108.437Z" fill="#FF8B7B"/>
<path d="M261.668 103.644C267.389 104.919 271.368 120.325 271.368 120.325L261.14 129.904C257.888 126.17 255.33 121.85 253.594 117.16C250.884 109.45 255.549 102.271 261.668 103.644Z" fill="#263238"/>
<path d="M255.103 156.949L248.524 157.02L252.64 163.867C252.64 163.867 257.325 162.67 257.744 160.242L255.103 156.949Z" fill="#FF8B7B"/>
<path d="M244.429 161.063L248.058 166.557L252.606 163.867L248.524 157.02L244.429 161.063Z" fill="#FF8B7B"/>
<path d="M254.787 86.2982C254.056 87.6861 252.823 88.7194 251.357 89.1727C249.409 89.7603 248.414 87.9691 248.936 86.0645C249.409 84.3512 250.994 81.9794 252.942 82.2272C254.89 82.475 255.658 84.5919 254.787 86.2982Z" fill="#FF8B7B"/>
<path d="M196.48 203.441L189.166 203.989L189.215 204.695L196.529 204.147L196.48 203.441Z" fill="#27AE60"/>
<path d="M203.052 202.952L199.46 203.221L199.509 203.927L203.102 203.658L203.052 202.952Z" fill="#27AE60"/>
<path d="M234.612 119.843L113.492 128.856C110.971 129.059 108.629 130.28 106.975 132.254C105.321 134.227 104.488 136.794 104.656 139.398L108.772 198.318C108.967 200.924 110.151 203.344 112.067 205.053C113.982 206.763 116.474 207.622 119 207.444L125.86 206.934C126.359 206.897 126.851 207.066 127.229 207.403C127.607 207.74 127.84 208.218 127.877 208.733L128.646 219.65C128.658 219.861 128.732 220.064 128.857 220.232C128.982 220.4 129.153 220.526 129.347 220.593C129.542 220.66 129.752 220.665 129.949 220.608C130.147 220.551 130.324 220.434 130.457 220.273L141.94 206.573C142.423 205.999 143.106 205.646 143.84 205.589L240.1 198.431C242.622 198.23 244.965 197.01 246.621 195.036C248.277 193.062 249.111 190.494 248.943 187.889L244.827 128.969C244.632 126.366 243.45 123.948 241.537 122.239C239.624 120.531 237.136 119.67 234.612 119.843Z" fill="#27AE60"/>
<path d="M131.184 155.902L137.728 155.413L138.263 163.059L145.411 162.528L144.876 154.882L151.448 154.386L152.978 176.235L146.406 176.724L145.789 167.888L138.641 168.426L139.258 177.262L132.72 177.75L131.184 155.902Z" fill="white"/>
<path opacity="0.2" d="M113.492 128.856C110.971 129.059 108.629 130.28 106.975 132.254C105.321 134.227 104.488 136.795 104.656 139.398L108.772 198.318C108.967 200.924 110.151 203.344 112.067 205.053C113.982 206.763 116.474 207.622 119 207.444L120.009 207.366C121.684 207.241 123.273 206.549 124.528 205.397C125.784 204.245 126.635 202.697 126.951 200.994L140.747 126.824L113.492 128.856Z" fill="black"/>
<path d="M173.51 168.263L161.725 169.141C161.815 169.929 162.136 170.67 162.644 171.265C162.935 171.582 163.294 171.825 163.691 171.974C164.089 172.124 164.514 172.177 164.935 172.129C165.513 172.087 166.07 171.891 166.554 171.563C166.933 171.267 167.256 170.902 167.508 170.487L173.339 170.607C172.704 172.091 171.674 173.358 170.368 174.26C169.17 175.044 167.4 175.516 165.059 175.676C163.421 175.873 161.762 175.691 160.202 175.145C158.95 174.603 157.876 173.701 157.108 172.547C156.226 171.233 155.72 169.69 155.647 168.094C155.524 166.985 155.628 165.862 155.952 164.798C156.276 163.733 156.812 162.75 157.526 161.913C158.953 160.27 161.011 159.347 163.7 159.144C165.481 158.926 167.286 159.144 168.969 159.782C170.257 160.35 171.343 161.317 172.076 162.55C172.915 164.081 173.386 165.798 173.448 167.555L173.51 168.263ZM167.336 165.8C167.253 164.879 166.868 164.015 166.245 163.35C165.932 163.101 165.572 162.921 165.188 162.821C164.804 162.722 164.405 162.705 164.014 162.771C163.624 162.837 163.251 162.986 162.918 163.207C162.586 163.429 162.301 163.718 162.081 164.058C161.715 164.724 161.53 165.48 161.546 166.246L167.336 165.8Z" fill="white"/>
<path d="M175.328 152.61L181.221 152.171L182.75 174.012L176.858 174.451L175.328 152.61Z" fill="white"/>
<path d="M185.172 151.873L191.065 151.434L192.595 173.276L186.709 173.715L185.172 151.873Z" fill="white"/>
<path d="M195.078 165.184C194.966 164.075 195.082 162.956 195.418 161.897C195.754 160.838 196.302 159.864 197.026 159.038C198.494 157.353 200.573 156.409 203.262 156.206C206.326 155.98 208.709 156.725 210.41 158.443C211.823 159.981 212.639 162.002 212.704 164.12C212.768 166.239 212.076 168.308 210.76 169.934C209.305 171.605 207.197 172.549 204.435 172.766C202.289 173.032 200.121 172.505 198.316 171.279C197.355 170.592 196.563 169.683 196.001 168.625C195.439 167.567 195.123 166.389 195.078 165.184ZM200.971 164.73C200.96 165.848 201.331 166.934 202.02 167.796C202.298 168.09 202.634 168.317 203.006 168.464C203.378 168.61 203.775 168.671 204.172 168.642C204.569 168.614 204.955 168.497 205.303 168.3C205.652 168.102 205.955 167.829 206.191 167.499C206.745 166.513 206.954 165.36 206.781 164.235C206.788 163.14 206.421 162.077 205.745 161.233C205.481 160.934 205.153 160.702 204.788 160.554C204.423 160.407 204.03 160.348 203.639 160.383C203.232 160.403 202.834 160.519 202.477 160.723C202.12 160.927 201.814 161.213 201.581 161.559C201.028 162.511 200.822 163.635 200.998 164.73H200.971Z" fill="white"/>
<path d="M214.56 149.678L220.837 149.211L221.187 154.167L220.672 164.256L216.79 164.546L214.903 154.634L214.56 149.678ZM215.932 166.161L221.791 165.722L222.168 171.074L216.303 171.506L215.932 166.161Z" fill="white"/>
<path d="M111.818 109.457C111.787 110.493 111.84 111.53 111.976 112.558C105.76 114.7 99.1304 115.242 92.6649 114.137C92.9753 112.926 93.1638 111.685 93.2274 110.434C93.0112 111.693 92.5865 112.905 91.9721 114.016C90.751 113.776 90.065 113.57 90.065 113.57C90.065 113.57 91.3135 106.604 89.0634 101.534C86.8133 96.465 87.9384 93.633 89.6397 92.8329C92.7953 82.8218 104.656 84.4007 108.669 88.4646C113.759 93.6188 113.787 108.14 114.692 111.46C113.945 111.793 113.211 112.098 112.477 112.367C112.109 111.439 111.887 110.457 111.818 109.457Z" fill="#263238"/>
<path d="M116.723 125.04L117.34 127.058C117.567 127.766 117.793 128.474 118.026 129.146C118.486 130.562 118.966 131.978 119.481 133.338C119.995 134.697 120.489 136.127 121.024 137.515L121.82 139.639L122.019 140.163L122.067 140.283C121.982 140.206 121.884 140.146 121.779 140.106C121.628 140.049 121.566 140.106 121.662 140.106C121.827 140.105 121.991 140.079 122.149 140.028C122.686 139.853 123.201 139.615 123.686 139.32C124.856 138.617 125.975 137.826 127.033 136.955C128.145 136.063 129.236 135.108 130.306 134.123C131.376 133.139 132.453 132.113 133.489 131.107L135.595 132.948C134.717 134.251 133.791 135.44 132.851 136.651C131.911 137.862 130.855 138.994 129.771 140.12C128.655 141.295 127.441 142.366 126.142 143.32C125.399 143.858 124.6 144.309 123.761 144.666C123.229 144.886 122.671 145.034 122.101 145.105C121.328 145.204 120.543 145.094 119.824 144.786C119.039 144.441 118.371 143.865 117.903 143.129C117.8 142.966 117.704 142.804 117.628 142.655L117.443 142.273L117.196 141.756C116.874 141.048 116.51 140.34 116.229 139.674C115.605 138.258 114.98 136.842 114.411 135.426C113.842 134.01 113.286 132.552 112.758 131.093C112.511 130.385 112.264 129.613 112.031 128.87C111.797 128.127 111.571 127.397 111.345 126.527L116.723 125.04Z" fill="#FFC3BD"/>
<path d="M115.097 118.753C117.464 119.376 119.117 129.415 119.117 129.415L112.6 133.989C112.6 133.989 106.358 123.857 108.175 121.174C110.069 118.385 111.647 117.846 115.097 118.753Z" fill="#27AE60"/>
<path d="M115.097 118.753C117.464 119.376 119.117 129.415 119.117 129.415L112.6 133.989C112.6 133.989 106.358 123.857 108.175 121.174C110.069 118.385 111.647 117.846 115.097 118.753Z" fill="#27AE60"/>
<path opacity="0.4" d="M115.097 118.753C117.464 119.376 119.117 129.415 119.117 129.415L112.6 133.989C112.6 133.989 106.358 123.857 108.175 121.174C110.069 118.385 111.647 117.846 115.097 118.753Z" fill="white"/>
<path opacity="0.3" d="M114.884 120.997L116.702 131.114L113.039 133.677L114.884 120.997Z" fill="black"/>
<path d="M133.379 131.348L135.554 125.939L138.236 131.348C138.236 131.348 136.493 134.038 134.195 133.38L133.379 131.348Z" fill="#FFC3BD"/>
<path d="M137.948 125.38L141.391 126.81L138.236 131.348L135.547 125.939L137.948 125.38Z" fill="#FFC3BD"/>
<path d="M102.303 287.766H108.045L108.429 274.052H102.687L102.303 287.766Z" fill="#FFC3BD"/>
<path d="M63.8049 270.102L69.0802 272.424L75.9882 260.558L70.706 258.236L63.8049 270.102Z" fill="#FFC3BD"/>
<path d="M70.0955 271.617L64.6075 268.134C64.5137 268.072 64.4009 268.047 64.2907 268.066C64.1806 268.084 64.0809 268.143 64.0107 268.233L60.711 272.318C60.6289 272.425 60.57 272.549 60.5381 272.681C60.5062 272.814 60.5022 272.951 60.5262 273.086C60.5502 273.22 60.6018 273.347 60.6775 273.459C60.7531 273.571 60.8511 273.665 60.9649 273.734C62.8994 274.916 63.8872 275.384 66.3019 276.913C67.7906 277.862 69.8623 279.391 71.9134 280.694C73.9646 281.996 75.3434 279.986 74.582 279.242C71.2549 275.964 71.3509 274.407 70.7266 272.467C70.6229 272.114 70.3986 271.812 70.0955 271.617Z" fill="#263238"/>
<path d="M108.237 287.08H101.796C101.685 287.079 101.577 287.119 101.493 287.193C101.408 287.267 101.353 287.37 101.336 287.483L100.602 292.751C100.584 292.886 100.595 293.024 100.633 293.154C100.672 293.284 100.738 293.405 100.826 293.506C100.914 293.608 101.022 293.689 101.143 293.743C101.265 293.797 101.396 293.823 101.528 293.82C103.778 293.785 104.862 293.643 107.702 293.643C109.444 293.643 113.053 293.834 115.461 293.834C117.869 293.834 117.992 291.377 116.99 291.151C112.497 290.153 110.727 288.779 109.211 287.469C108.943 287.222 108.597 287.084 108.237 287.08Z" fill="#263238"/>
<path opacity="0.2" d="M108.422 274.06L108.23 281.125H102.488L102.687 274.06H108.422Z" fill="black"/>
<path opacity="0.2" d="M70.706 258.243L75.9814 260.558L72.421 266.675L67.1457 264.353L70.706 258.243Z" fill="black"/>
<path d="M115.097 118.753C115.097 118.753 117.841 119.744 112.353 154.486H89.0291C89.4201 144.701 89.4338 138.669 84.9131 118.583C88.1745 117.887 91.4806 117.438 94.8052 117.238C98.329 116.975 101.866 116.975 105.39 117.238C109.945 117.663 115.097 118.753 115.097 118.753Z" fill="#27AE60"/>
<path opacity="0.4" d="M115.097 118.753C115.097 118.753 117.841 119.744 112.353 154.486H89.0291C89.4201 144.701 89.4338 138.669 84.9131 118.583C88.1745 117.887 91.4806 117.438 94.8052 117.238C98.329 116.975 101.866 116.975 105.39 117.238C109.945 117.663 115.097 118.753 115.097 118.753Z" fill="white"/>
<path d="M94.8189 117.231C98.3429 116.975 101.88 116.975 105.404 117.231C105.973 117.287 106.556 117.351 107.133 117.422C107.372 117.794 107.526 118.218 107.582 118.661C107.638 119.104 107.595 119.555 107.455 119.978C106.707 121.882 104.025 122.102 102.077 122.102C94.8669 122.102 93.6459 117.754 93.5978 117.57L93.5292 117.308L94.8189 117.231Z" fill="white"/>
<path d="M95.8685 104.94C96.5545 108.48 97.2062 114.894 94.819 117.238C94.819 117.238 95.7519 120.778 102.077 120.778C109.033 120.778 105.404 117.238 105.404 117.238C101.604 116.303 101.706 113.393 102.365 110.667L95.8685 104.94Z" fill="#FFC3BD"/>
<path d="M96.5614 102.44C95.7451 105.223 96.877 111.807 98.5577 114.356C95.2443 112.395 94.1261 106.419 94.1261 106.419L96.5614 102.44Z" fill="#263238"/>
<path opacity="0.2" d="M98.5165 107.276L102.365 110.66C102.196 111.295 102.086 111.944 102.036 112.6C100.588 112.381 98.6057 110.738 98.441 109.174C98.3558 108.542 98.3814 107.899 98.5165 107.276Z" fill="black"/>
<path d="M92.7266 98.6669C94.0575 104.38 94.4965 106.83 97.8305 109.287C102.845 112.976 109.355 110.044 109.705 104.034C110.021 98.6244 107.798 90.1921 101.933 88.8894C100.64 88.5949 99.2966 88.6462 98.0289 89.0383C96.7612 89.4305 95.6116 90.1505 94.6893 91.1301C93.767 92.1096 93.1026 93.3162 92.7591 94.6353C92.4156 95.9543 92.4044 97.3421 92.7266 98.6669Z" fill="#FFC3BD"/>
<path d="M112.36 154.486C112.36 154.486 116.881 200.095 116.476 218.149C116.085 236.925 109.417 279.745 109.417 279.745H101.665C101.665 279.745 102.893 238.008 102.207 219.565C101.459 199.458 95.2717 154.471 95.2717 154.471L112.36 154.486Z" fill="#27AE60"/>
<path opacity="0.4" d="M112.36 154.486C112.36 154.486 116.881 200.095 116.476 218.149C116.085 236.925 109.417 279.745 109.417 279.745H101.665C101.665 279.745 102.893 238.008 102.207 219.565C101.459 199.458 95.2717 154.471 95.2717 154.471L112.36 154.486Z" fill="black"/>
<path d="M101.02 280.042H110.117L110.789 277.047L100.595 276.679L101.02 280.042Z" fill="#27AE60"/>
<path opacity="0.2" d="M102.31 165.835C108.031 177.715 103.456 199.387 101.432 207.451C100.396 195.344 98.6468 180.547 97.2817 169.665C98.146 163.548 99.669 160.355 102.31 165.835Z" fill="black"/>
<path d="M106.207 154.486C106.207 154.486 100.924 201.922 96.9387 217.122C92.2121 235.198 74.2184 265.974 74.2184 265.974L67.0222 262.817C67.0222 262.817 78.156 227.87 81.7781 218.347C89.4956 198.028 82.8894 167.746 89.0565 154.486H106.207Z" fill="#27AE60"/>
<path opacity="0.4" d="M106.207 154.486C106.207 154.486 100.924 201.922 96.9387 217.122C92.2121 235.198 74.2184 265.974 74.2184 265.974L67.0222 262.817C67.0222 262.817 78.156 227.87 81.7781 218.347C89.4956 198.028 82.8894 167.746 89.0565 154.486H106.207Z" fill="black"/>
<path d="M66.0275 262.838L74.9592 266.76L77.1064 264.282L66.8027 259.177L66.0275 262.838Z" fill="#27AE60"/>
<path d="M101.528 98.7448C101.61 99.2121 101.912 99.5519 102.214 99.4953C102.516 99.4386 102.687 99.0138 102.605 98.5465C102.523 98.0793 102.221 97.7394 101.919 97.789C101.617 97.8385 101.411 98.2704 101.528 98.7448Z" fill="#263238"/>
<path d="M106.646 97.8102C106.721 98.2775 107.03 98.6173 107.332 98.5607C107.633 98.5041 107.812 98.0792 107.729 97.612C107.647 97.1447 107.345 96.8048 107.043 96.8544C106.742 96.904 106.563 97.3358 106.646 97.8102Z" fill="#263238"/>
<path d="M106.913 96.9111L107.949 96.3801C107.949 96.3801 107.537 97.3642 106.913 96.9111Z" fill="#263238"/>
<path d="M105.418 98.865C106.007 99.8642 106.727 100.774 107.558 101.57C107.354 101.782 107.108 101.947 106.837 102.052C106.566 102.157 106.276 102.2 105.987 102.178L105.418 98.865Z" fill="#ED847E"/>
<path d="M103.922 104.394C104.182 104.394 104.441 104.37 104.697 104.324C104.717 104.323 104.736 104.318 104.754 104.309C104.771 104.299 104.787 104.287 104.799 104.271C104.811 104.255 104.82 104.237 104.825 104.217C104.83 104.198 104.83 104.177 104.827 104.157C104.823 104.137 104.816 104.118 104.805 104.102C104.794 104.085 104.779 104.071 104.762 104.061C104.745 104.05 104.727 104.044 104.707 104.041C104.688 104.039 104.668 104.041 104.649 104.048C104.084 104.164 103.501 104.14 102.946 103.979C102.392 103.818 101.882 103.523 101.459 103.12C101.434 103.094 101.399 103.08 101.363 103.08C101.327 103.08 101.293 103.094 101.267 103.12C101.254 103.133 101.243 103.148 101.236 103.165C101.229 103.182 101.225 103.201 101.225 103.219C101.225 103.238 101.229 103.256 101.236 103.273C101.243 103.29 101.254 103.306 101.267 103.318C101.983 104.019 102.935 104.405 103.922 104.394Z" fill="#263238"/>
<path d="M94.668 95.318C94.8181 96.8235 95.0471 98.3196 95.354 99.7996C95.354 99.7996 98.784 95.318 99.3534 92.9178C99.2173 93.8628 98.9517 94.783 98.5645 95.6507C98.5645 95.6507 103.181 94.61 103.634 91.4664C103.626 92.8737 103.474 94.2763 103.181 95.6507C103.181 95.6507 107.585 93.8666 107.181 90.8505C106.776 87.8344 100.012 86.6662 96.8907 87.6857C93.7694 88.7052 90.7167 92.0116 91.6359 96.557C92.5552 101.102 94.3182 102.809 94.3182 102.809C94.3182 102.809 93.0491 98.2278 94.668 95.318Z" fill="#263238"/>
<path d="M92.4866 102.971C92.91 104.02 93.7192 104.853 94.7367 105.287C96.1087 105.853 96.925 104.642 96.6849 103.241C96.4722 101.973 95.505 100.161 94.0849 100.189C93.7742 100.203 93.4718 100.297 93.205 100.462C92.9383 100.627 92.7155 100.858 92.5569 101.134C92.3983 101.41 92.3088 101.723 92.2965 102.044C92.2842 102.364 92.3496 102.683 92.4866 102.971Z" fill="#FFC3BD"/>
<path d="M95.4981 93.1375C94.8121 95.9695 96.239 102.483 98.0363 104.94C94.6063 103.149 93.2343 97.2297 93.2343 97.2297L95.4981 93.1375Z" fill="#263238"/>
<path d="M99.6484 97.1306C99.6836 97.1196 99.7164 97.1014 99.7446 97.0771C99.7729 97.0527 99.7962 97.0228 99.813 96.989C99.9576 96.6696 100.174 96.3902 100.443 96.1736C100.713 95.957 101.028 95.8094 101.363 95.7429C101.434 95.7323 101.499 95.6942 101.543 95.6363C101.588 95.5784 101.609 95.5051 101.603 95.4314C101.6 95.3944 101.59 95.3585 101.572 95.3258C101.555 95.2931 101.532 95.2643 101.504 95.2412C101.475 95.218 101.443 95.201 101.408 95.1911C101.374 95.1812 101.337 95.1787 101.302 95.1836C100.876 95.2598 100.474 95.4404 100.131 95.7102C99.7868 95.9801 99.5108 96.3312 99.3259 96.7341C99.3026 96.7833 99.2937 96.8385 99.3001 96.8929C99.3066 96.9472 99.3282 96.9985 99.3623 97.0405C99.3964 97.0825 99.4416 97.1133 99.4924 97.1293C99.5432 97.1453 99.5974 97.1457 99.6484 97.1306Z" fill="#263238"/>
<path d="M108.518 94.9356C108.553 94.9371 108.587 94.931 108.619 94.9175C108.651 94.9041 108.68 94.8837 108.704 94.8577C108.754 94.8048 108.782 94.7336 108.782 94.6595C108.782 94.5853 108.754 94.5142 108.704 94.4612C108.411 94.1345 108.048 93.8834 107.644 93.7285C107.24 93.5735 106.806 93.5189 106.378 93.5692C106.342 93.576 106.308 93.59 106.278 93.6104C106.248 93.6309 106.221 93.6573 106.201 93.6883C106.181 93.7192 106.166 93.754 106.159 93.7907C106.152 93.8274 106.152 93.8652 106.159 93.9019C106.173 93.9735 106.215 94.0364 106.273 94.0773C106.332 94.1182 106.404 94.134 106.474 94.1214C106.812 94.0825 107.154 94.1263 107.472 94.2493C107.79 94.3723 108.076 94.5711 108.306 94.8294C108.331 94.8623 108.364 94.889 108.4 94.9073C108.437 94.9257 108.477 94.9354 108.518 94.9356Z" fill="#263238"/>
<path d="M87.76 126.987C86.8064 130.095 85.8941 133.359 85.1189 136.573C84.3386 139.746 83.7679 142.97 83.4107 146.223L83.3559 146.818C83.3559 147.009 83.3559 147.052 83.3559 147.221C83.3635 147.555 83.3886 147.889 83.4313 148.22C83.5187 148.995 83.6446 149.766 83.8086 150.528C84.131 152.107 84.4946 153.735 84.9611 155.349C85.4276 156.964 85.8255 158.606 86.2919 160.234L87.6639 165.12L85.1189 166.203C83.5548 163.116 82.1965 159.973 80.9274 156.73C80.3169 155.101 79.7201 153.459 79.2261 151.724C78.9792 150.861 78.7459 149.976 78.5401 149.013C78.4424 148.503 78.3737 147.987 78.3344 147.469C78.3344 147.207 78.3344 146.818 78.3344 146.584V145.876C78.3925 144.072 78.5528 142.273 78.8145 140.488C79.0409 138.718 79.3771 136.991 79.7406 135.27C80.4544 131.825 81.3708 128.427 82.4846 125.096L87.76 126.987Z" fill="#FFC3BD"/>
<path d="M84.9268 118.583C82.5944 119.291 79.7887 127.61 79.7887 127.61L88.8439 134.293C88.8439 134.293 92.1504 127.369 91.1694 124.254C90.1473 121.011 87.5954 117.747 84.9268 118.583Z" fill="#27AE60"/>
<path opacity="0.4" d="M84.9268 118.583C82.5944 119.291 79.7887 127.61 79.7887 127.61L88.8439 134.293C88.8439 134.293 92.1504 127.369 91.1694 124.254C90.1473 121.011 87.5954 117.747 84.9268 118.583Z" fill="white"/>
<path d="M72.4142 273.869C72.5258 273.828 72.6273 273.763 72.7115 273.677C72.7957 273.591 72.8605 273.487 72.9013 273.373C72.9409 273.299 72.9617 273.216 72.9617 273.132C72.9617 273.048 72.9409 272.965 72.9013 272.891C72.4897 272.268 70.4111 272.318 70.1573 272.325C70.131 272.326 70.1053 272.334 70.0834 272.349C70.0616 272.364 70.0443 272.385 70.0338 272.41C70.0204 272.432 70.0134 272.458 70.0134 272.484C70.0134 272.511 70.0204 272.536 70.0338 272.559C70.5757 273.118 71.591 274.031 72.3045 273.89L72.4142 273.869ZM70.4866 272.58C71.3166 272.58 72.4279 272.7 72.6475 273.033C72.6662 273.065 72.6761 273.102 72.6761 273.139C72.6761 273.177 72.6662 273.213 72.6475 273.245C72.6171 273.331 72.5668 273.407 72.501 273.468C72.4352 273.528 72.3559 273.571 72.2702 273.592C71.8929 273.692 71.2343 273.288 70.4866 272.58Z" fill="#27AE60"/>
<path d="M71.097 272.431C71.7282 272.226 72.4004 271.865 72.5445 271.461C72.5803 271.357 72.5808 271.242 72.546 271.137C72.5111 271.032 72.4429 270.941 72.3524 270.881C72.2725 270.812 72.1785 270.763 72.0775 270.737C71.9765 270.711 71.8711 270.71 71.7693 270.732C70.953 270.881 70.0749 272.325 70.0406 272.389C70.0286 272.41 70.0222 272.435 70.0222 272.46C70.0222 272.485 70.0286 272.509 70.0406 272.531C70.0529 272.551 70.07 272.569 70.0904 272.581C70.1107 272.593 70.1336 272.6 70.1572 272.601C70.4768 272.592 70.7934 272.535 71.097 272.431ZM71.7282 271.015H71.8173C71.8818 271.002 71.9485 271.003 72.0126 271.019C72.0766 271.034 72.1365 271.065 72.1878 271.107C72.325 271.221 72.3113 271.306 72.2907 271.369C72.1535 271.759 71.1108 272.226 70.4179 272.318C70.7331 271.774 71.1861 271.328 71.7282 271.03V271.015Z" fill="#27AE60"/>
<path d="M110.391 288.113C110.875 288.154 111.358 288.027 111.763 287.752C111.857 287.664 111.929 287.554 111.972 287.43C112.015 287.307 112.028 287.174 112.01 287.044C112.005 286.968 111.98 286.894 111.94 286.829C111.899 286.765 111.843 286.712 111.777 286.676C111.091 286.28 108.793 287.483 108.532 287.618C108.507 287.628 108.485 287.647 108.47 287.67C108.455 287.693 108.447 287.721 108.447 287.749C108.447 287.777 108.455 287.804 108.47 287.828C108.485 287.851 108.507 287.869 108.532 287.88C109.143 288.022 109.765 288.101 110.391 288.113ZM111.413 286.889C111.501 286.883 111.588 286.9 111.667 286.938C111.694 286.953 111.717 286.976 111.732 287.003C111.748 287.031 111.756 287.062 111.756 287.094C111.769 287.175 111.762 287.259 111.736 287.337C111.709 287.415 111.665 287.484 111.605 287.54C111.256 287.866 110.309 287.922 109.04 287.703C109.781 287.295 110.583 287.019 111.413 286.889Z" fill="#27AE60"/>
<path d="M108.614 287.908H108.669C109.355 287.59 110.727 286.315 110.604 285.643C110.604 285.48 110.467 285.289 110.089 285.246C109.954 285.23 109.818 285.244 109.688 285.285C109.558 285.327 109.438 285.395 109.335 285.487C108.649 286.11 108.484 287.703 108.477 287.767C108.476 287.791 108.482 287.816 108.492 287.838C108.503 287.861 108.519 287.88 108.539 287.894C108.561 287.909 108.588 287.914 108.614 287.908ZM109.986 285.508H110.069C110.316 285.508 110.336 285.643 110.336 285.671C110.405 286.074 109.486 287.087 108.786 287.519C108.841 286.846 109.097 286.207 109.52 285.692C109.646 285.574 109.81 285.508 109.98 285.508H109.986Z" fill="#27AE60"/>
<path d="M88.7067 153.077L88.1167 155.201C88.0344 155.364 88.2265 155.534 88.494 155.534H112.504C112.717 155.534 112.888 155.427 112.902 155.293L113.115 153.169C113.115 153.02 112.943 152.893 112.717 152.893H89.0908C89.0169 152.887 88.9427 152.901 88.8754 152.933C88.8081 152.965 88.75 153.015 88.7067 153.077Z" fill="#263238"/>
<path d="M91.876 155.795H91.238C91.1145 155.795 91.0185 155.732 91.0254 155.647L91.3203 152.815C91.3203 152.737 91.4438 152.666 91.5673 152.666H92.1984C92.3288 152.666 92.418 152.737 92.4111 152.815L92.1161 155.647C92.1161 155.76 92.0063 155.795 91.876 155.795Z" fill="#27AE60"/>
<path opacity="0.4" d="M91.876 155.795H91.238C91.1145 155.795 91.0185 155.732 91.0254 155.647L91.3203 152.815C91.3203 152.737 91.4438 152.666 91.5673 152.666H92.1984C92.3288 152.666 92.418 152.737 92.4111 152.815L92.1161 155.647C92.1161 155.76 92.0063 155.795 91.876 155.795Z" fill="black"/>
<path d="M110.693 155.795H110.062C109.938 155.795 109.842 155.732 109.849 155.647L110.151 152.815C110.151 152.737 110.268 152.666 110.391 152.666H111.022C111.153 152.666 111.249 152.737 111.235 152.815L110.94 155.647C110.933 155.76 110.823 155.795 110.693 155.795Z" fill="#27AE60"/>
<path opacity="0.4" d="M110.693 155.795H110.062C109.938 155.795 109.842 155.732 109.849 155.647L110.151 152.815C110.151 152.737 110.268 152.666 110.391 152.666H111.022C111.153 152.666 111.249 152.737 111.235 152.815L110.94 155.647C110.933 155.76 110.823 155.795 110.693 155.795Z" fill="black"/>
<path d="M101.288 155.795H100.657C100.526 155.795 100.43 155.732 100.444 155.647L100.739 152.815C100.739 152.737 100.856 152.666 100.986 152.666H101.617C101.741 152.666 101.837 152.737 101.83 152.815L101.535 155.647C101.528 155.76 101.411 155.795 101.288 155.795Z" fill="#27AE60"/>
<path opacity="0.4" d="M101.288 155.795H100.657C100.526 155.795 100.43 155.732 100.444 155.647L100.739 152.815C100.739 152.737 100.856 152.666 100.986 152.666H101.617C101.741 152.666 101.837 152.737 101.83 152.815L101.535 155.647C101.528 155.76 101.411 155.795 101.288 155.795Z" fill="black"/>
<path d="M101.761 97.8386L102.797 97.3147C102.797 97.3147 102.386 98.2988 101.761 97.8386Z" fill="#263238"/>
<path d="M87.4719 164.32L92.3905 168.214L86.6899 169.509C86.6899 169.509 84.2683 166.677 85.1052 164.341L87.4719 164.32Z" fill="#FFC3BD"/>
<path d="M93.5978 173.035L88.7684 173.849L86.1342 168.738L92.3905 168.214L93.5978 173.035Z" fill="#FFC3BD"/>
</svg>
