<svg width="24" height="25" viewBox="0 0 24 25" fill="none" xmlns="http://www.w3.org/2000/svg">
<path d="M1.66643 23.0384H7.81888V14.9073C7.81888 14.5411 7.94831 14.2341 8.20716 13.9864C8.4649 13.7376 8.7843 13.6133 9.16536 13.6133H14.1646C14.5457 13.6133 14.8657 13.7376 15.1245 13.9864C15.3822 14.2341 15.5111 14.5411 15.5111 14.9073V23.0384H21.6636V9.11768C21.6636 8.95325 21.6264 8.80377 21.5519 8.66924C21.4775 8.53471 21.3758 8.41726 21.247 8.3169L12.2749 1.81777C12.1038 1.6747 11.9005 1.60316 11.665 1.60316C11.4295 1.60316 11.2267 1.6747 11.0568 1.81777L2.08304 8.3169C1.95528 8.4194 1.85362 8.53685 1.77808 8.66924C1.70253 8.80164 1.66532 8.95112 1.66643 9.11768V23.0384ZM0 23.0384V9.11768C0 8.70768 0.0955418 8.31957 0.286626 7.95335C0.477709 7.58712 0.741005 7.2855 1.07651 7.04847L10.0502 0.517305C10.5202 0.172435 11.0568 0 11.66 0C12.2632 0 12.8032 0.172435 13.2798 0.517305L22.2535 7.04686C22.5901 7.2839 22.8534 7.58606 23.0434 7.95335C23.2345 8.31957 23.33 8.70768 23.33 9.11768V23.0384C23.33 23.4677 23.1639 23.8419 22.8317 24.1611C22.4996 24.4804 22.1102 24.64 21.6636 24.64H15.1912C14.809 24.64 14.489 24.5161 14.2313 24.2684C13.9736 24.0197 13.8447 23.7122 13.8447 23.3459V15.2164H9.48531V23.3459C9.48531 23.7132 9.35644 24.0207 9.0987 24.2684C8.84096 24.5161 8.52156 24.64 8.1405 24.64H1.66643C1.21983 24.64 0.830437 24.4804 0.498262 24.1611C0.166087 23.8419 0 23.4677 0 23.0384Z" fill="#AEAEAE"/>
</svg>
