<svg width="30" height="20" viewBox="0 0 30 20" fill="none" xmlns="http://www.w3.org/2000/svg">
<path d="M3.21429 0C1.45179 0 0 1.355 0 3V17C0 18.645 1.45179 20 3.21429 20H26.7857C28.5482 20 30 18.645 30 17V3C30 1.355 28.5482 0 26.7857 0H3.21429ZM3.21429 2H26.7857C27.3921 2 27.8571 2.434 27.8571 3V17C27.8571 17.566 27.3921 18 26.7857 18H3.21429C2.60786 18 2.14286 17.566 2.14286 17V3C2.14286 2.434 2.60786 2 3.21429 2ZM9.64286 4C7.28571 4 5.35714 5.8 5.35714 8C5.35714 9.113 5.86821 10.117 6.66321 10.844C5.93418 11.3036 5.33649 11.9224 4.92214 12.6468C4.50778 13.3711 4.28931 14.1789 4.28571 15H6.42857C6.42857 13.332 7.85571 12 9.64286 12C11.43 12 12.8571 13.332 12.8571 15H15C14.9964 14.1789 14.7779 13.3711 14.3636 12.6468C13.9492 11.9224 13.3515 11.3036 12.6225 10.844C13.4175 10.117 13.9286 9.114 13.9286 8C13.9286 5.8 12 4 9.64286 4ZM17.1429 5V7H25.7143V5H17.1429ZM9.64286 6C10.8396 6 11.7857 6.883 11.7857 8C11.7857 9.117 10.8396 10 9.64286 10C8.44607 10 7.5 9.117 7.5 8C7.5 6.883 8.44607 6 9.64286 6ZM17.1429 9V11H25.7143V9H17.1429ZM17.1429 13V15H22.5V13H17.1429Z" fill="#27AE60"/>
</svg>
