<svg width="29" height="29" viewBox="0 0 29 29" fill="none" xmlns="http://www.w3.org/2000/svg">
<path d="M27.4549 14.4433C27.7434 14.4721 28.0087 14.6142 28.1924 14.8384C28.3762 15.0626 28.4634 15.3507 28.4349 15.6392C27.7203 22.8288 21.642 28.4375 14.2541 28.4375C10.2816 28.4375 6.43158 27.0769 3.69866 24.5292L1.09699 27.125C0.806914 27.125 0.528714 27.0098 0.323596 26.8047C0.118479 26.5995 0.00324463 26.3213 0.00324463 26.0313V20.2562C0.00324463 19.215 0.849078 18.375 1.88595 18.375H7.67554C7.96562 18.375 8.24382 18.4902 8.44893 18.6954C8.65405 18.9005 8.76929 19.1787 8.76929 19.4688L5.25033 22.979C7.52241 25.0688 10.7628 26.25 14.2541 26.25C20.5103 26.25 25.6539 21.4988 26.2591 15.4233C26.2878 15.1349 26.4299 14.8696 26.6542 14.6858C26.8784 14.5021 27.1664 14.4148 27.4549 14.4433ZM0.00907789 12.7983C0.723661 5.60875 6.80199 0 14.1899 0C18.1624 0 22.0124 1.36062 24.7453 3.90833L27.347 1.3125C27.6371 1.3125 27.9153 1.42773 28.1204 1.63285C28.3255 1.83797 28.4407 2.11617 28.4407 2.40625V8.18125C28.4407 9.2225 27.5949 10.0625 26.558 10.0625H20.7685C20.4784 10.0625 20.2002 9.94727 19.9951 9.74215C19.7899 9.53703 19.6747 9.25883 19.6747 8.96875L23.1937 5.45708C20.9216 3.36875 17.6812 2.1875 14.1899 2.1875C7.93366 2.1875 2.79012 6.93875 2.18491 13.0142C2.17484 13.1602 2.13556 13.3028 2.06938 13.4334C2.00321 13.5639 1.91149 13.6799 1.79966 13.7744C1.68784 13.8689 1.55818 13.94 1.41838 13.9834C1.27857 14.0269 1.13147 14.0418 0.985785 14.0274C0.8401 14.0129 0.698798 13.9694 0.570256 13.8993C0.441714 13.8292 0.328547 13.7341 0.237463 13.6194C0.146379 13.5048 0.0792321 13.3731 0.0400014 13.232C0.000770756 13.091 -0.00974499 12.9435 0.00907789 12.7983Z" fill="#27AE60"/>
</svg>
