<svg width="20" height="20" viewBox="0 0 20 20" fill="none" xmlns="http://www.w3.org/2000/svg">
<path opacity="0.987" fill-rule="evenodd" clip-rule="evenodd" d="M9.01125 1.32618C9.9175 1.22493 10.4537 1.22493 11.4275 1.32618C13.1512 1.5813 14.749 2.37804 15.99 3.60118C15.1514 4.39385 14.3238 5.19809 13.5075 6.01368C11.9442 4.68868 10.1992 4.38285 8.2725 5.09618C6.85916 5.74618 5.875 6.79952 5.32 8.25618C4.41305 7.58097 3.51791 6.89003 2.635 6.18368C2.57364 6.15138 2.50356 6.13956 2.435 6.14993C3.8375 3.44576 6.02916 1.83743 9.01 1.32493" fill="#F44336"/>
<path opacity="0.997" fill-rule="evenodd" clip-rule="evenodd" d="M2.43249 6.14998C2.50333 6.13915 2.57041 6.1504 2.63374 6.18373C3.51666 6.89008 4.4118 7.58102 5.31874 8.25623C5.17603 8.82381 5.08606 9.40335 5.04999 9.98748C5.08083 10.5525 5.17041 11.1071 5.31874 11.6512L2.49999 13.895C1.27249 11.33 1.24999 8.74832 2.43249 6.14998Z" fill="#FFC107"/>
<path opacity="0.999" fill-rule="evenodd" clip-rule="evenodd" d="M15.8562 16.6124C14.9786 15.8384 14.0597 15.1123 13.1037 14.4374C14.0621 13.7608 14.6437 12.8324 14.8487 11.6524H10.1525V8.39117C12.8608 8.36867 15.5679 8.39159 18.2737 8.45992C18.7871 11.2474 18.1942 13.7608 16.495 15.9999C16.293 16.2147 16.0789 16.4191 15.8562 16.6124Z" fill="#448AFF"/>
<path opacity="0.993" fill-rule="evenodd" clip-rule="evenodd" d="M5.31875 11.6523C6.34375 14.1998 8.22292 15.389 10.9563 15.2198C11.7235 15.131 12.4592 14.863 13.1038 14.4373C14.0604 15.114 14.9779 15.839 15.8563 16.6123C14.4646 17.8629 12.6901 18.6049 10.8225 18.7173C10.3982 18.7513 9.97182 18.7513 9.5475 18.7173C6.36583 18.3423 4.01667 16.7348 2.5 13.8948L5.31875 11.6523Z" fill="#43A047"/>
</svg>
