<svg width="20" height="20" viewBox="0 0 20 20" fill="none" xmlns="http://www.w3.org/2000/svg">
<path fill-rule="evenodd" clip-rule="evenodd" d="M4.16669 4.99967C3.94567 4.99967 3.73371 5.08747 3.57743 5.24375C3.42115 5.40003 3.33335 5.61199 3.33335 5.83301V14.1663C3.33335 14.3874 3.42115 14.5993 3.57743 14.7556C3.73371 14.9119 3.94567 14.9997 4.16669 14.9997H10.1417C10.3139 14.5117 10.6331 14.0892 11.0555 13.7903C11.4779 13.4915 11.9826 13.331 12.5 13.331C13.0174 13.331 13.5221 13.4915 13.9445 13.7903C14.3669 14.0892 14.6862 14.5117 14.8584 14.9997H15.8334C16.0544 14.9997 16.2663 14.9119 16.4226 14.7556C16.5789 14.5993 16.6667 14.3874 16.6667 14.1663V5.83301C16.6667 5.61199 16.5789 5.40003 16.4226 5.24375C16.2663 5.08747 16.0544 4.99967 15.8334 4.99967H14.8584C14.6862 5.48762 14.3669 5.91015 13.9445 6.20902C13.5221 6.50789 13.0174 6.66838 12.5 6.66838C11.9826 6.66838 11.4779 6.50789 11.0555 6.20902C10.6331 5.91015 10.3139 5.48762 10.1417 4.99967H4.16669ZM1.66669 5.83301C1.66669 5.16997 1.93008 4.53408 2.39892 4.06524C2.86776 3.5964 3.50365 3.33301 4.16669 3.33301H10.8334C11.0544 3.33301 11.2663 3.42081 11.4226 3.57709C11.5789 3.73337 11.6667 3.94533 11.6667 4.16634C11.6667 4.38735 11.7545 4.59932 11.9108 4.7556C12.067 4.91188 12.279 4.99967 12.5 4.99967C12.721 4.99967 12.933 4.91188 13.0893 4.7556C13.2456 4.59932 13.3334 4.38735 13.3334 4.16634C13.3334 3.94533 13.4212 3.73337 13.5774 3.57709C13.7337 3.42081 13.9457 3.33301 14.1667 3.33301H15.8334C16.4964 3.33301 17.1323 3.5964 17.6011 4.06524C18.07 4.53408 18.3334 5.16997 18.3334 5.83301V14.1663C18.3334 14.8294 18.07 15.4653 17.6011 15.9341C17.1323 16.4029 16.4964 16.6663 15.8334 16.6663H14.1667C13.9457 16.6663 13.7337 16.5785 13.5774 16.4223C13.4212 16.266 13.3334 16.054 13.3334 15.833C13.3334 15.612 13.2456 15.4 13.0893 15.2438C12.933 15.0875 12.721 14.9997 12.5 14.9997C12.279 14.9997 12.067 15.0875 11.9108 15.2438C11.7545 15.4 11.6667 15.612 11.6667 15.833C11.6667 16.054 11.5789 16.266 11.4226 16.4223C11.2663 16.5785 11.0544 16.6663 10.8334 16.6663H4.16669C3.50365 16.6663 2.86776 16.4029 2.39892 15.9341C1.93008 15.4653 1.66669 14.8294 1.66669 14.1663V5.83301ZM12.5 7.49967C12.721 7.49967 12.933 7.58747 13.0893 7.74375C13.2456 7.90003 13.3334 8.11199 13.3334 8.33301V8.74967C13.3334 8.97069 13.2456 9.18265 13.0893 9.33893C12.933 9.49521 12.721 9.58301 12.5 9.58301C12.279 9.58301 12.067 9.49521 11.9108 9.33893C11.7545 9.18265 11.6667 8.97069 11.6667 8.74967V8.33301C11.6667 8.11199 11.7545 7.90003 11.9108 7.74375C12.067 7.58747 12.279 7.49967 12.5 7.49967ZM13.3334 11.2497C13.3334 11.0287 13.2456 10.8167 13.0893 10.6604C12.933 10.5041 12.721 10.4163 12.5 10.4163C12.279 10.4163 12.067 10.5041 11.9108 10.6604C11.7545 10.8167 11.6667 11.0287 11.6667 11.2497V11.6663C11.6667 11.8874 11.7545 12.0993 11.9108 12.2556C12.067 12.4119 12.279 12.4997 12.5 12.4997C12.721 12.4997 12.933 12.4119 13.0893 12.2556C13.2456 12.0993 13.3334 11.8874 13.3334 11.6663V11.2497Z" fill="#14AE5C"/>
</svg>
