<svg width="24" height="26" viewBox="0 0 24 26" fill="none" xmlns="http://www.w3.org/2000/svg">
<path d="M3.99375 0C3.217 0 2.47206 0.305304 1.92281 0.84875C1.37356 1.39219 1.065 2.12926 1.065 2.89781V9.09281C0.41535 9.6239 0 10.4279 0 11.3278V21.3384C0 22.3865 0.420769 23.3916 1.16974 24.1326C1.91872 24.8737 2.93454 25.29 3.99375 25.29H19.4363C20.4955 25.29 21.5113 24.8737 22.2603 24.1326C23.0092 23.3916 23.43 22.3865 23.43 21.3384V18.7041C23.4301 18.0733 23.2221 17.4597 22.8377 16.9565C22.4532 16.4532 21.9134 16.0879 21.3 15.9158V5.53219C21.3001 4.99798 21.151 4.47414 20.869 4.01855C20.5871 3.56295 20.1834 3.19332 19.7025 2.9505V15.8063H18.6375V2.89781C18.6375 2.12926 18.3289 1.39219 17.7797 0.84875C17.2304 0.305304 16.4855 0 15.7088 0H3.99375ZM17.04 15.8063H16.3243C15.9716 15.806 15.6334 15.6673 15.3839 15.4206L9.17604 9.27932C8.62703 8.73581 7.88232 8.4303 7.10568 8.43H2.92875C2.83858 8.43 2.74983 8.43386 2.6625 8.44159V2.89781C2.6625 2.17073 3.2589 1.58063 3.99375 1.58063H15.7088C16.4436 1.58063 17.04 2.17073 17.04 2.89781V15.8063ZM1.5975 11.3278C1.5975 10.6007 2.1939 10.0106 2.92875 10.0106H7.10568C7.4582 10.0106 7.79687 10.1497 8.04608 10.3963L14.254 16.5386C14.8031 17.0817 15.5478 17.3869 16.3243 17.3869H20.5013C21.2361 17.3869 21.8325 17.977 21.8325 18.7041V21.3384C21.8325 21.9673 21.58 22.5703 21.1307 23.0149C20.6813 23.4596 20.0718 23.7094 19.4363 23.7094H3.99375C3.35823 23.7094 2.74873 23.4596 2.29935 23.0149C1.84996 22.5703 1.5975 21.9673 1.5975 21.3384V11.3278Z" fill="#AEAEAE"/>
</svg>
