<svg width="45" height="46" viewBox="0 0 45 46" fill="none" xmlns="http://www.w3.org/2000/svg">
<path d="M3.75 15.4375H16.4194C17.1583 15.4374 17.89 15.5829 18.5727 15.8657C19.2554 16.1485 19.8757 16.563 20.3981 17.0856L26.25 22.9375M9.375 32.3125H3.75M15.9375 21.0625L19.6875 24.8125C19.9337 25.0587 20.129 25.351 20.2623 25.6728C20.3956 25.9945 20.4641 26.3393 20.4641 26.6875C20.4641 27.0357 20.3956 27.3805 20.2623 27.7022C20.129 28.024 19.9337 28.3163 19.6875 28.5625C19.4413 28.8087 19.149 29.004 18.8272 29.1373C18.5055 29.2706 18.1607 29.3391 17.8125 29.3391C17.4643 29.3391 17.1195 29.2706 16.7978 29.1373C16.476 29.004 16.1837 28.8087 15.9375 28.5625L13.125 25.75C11.5125 27.3625 8.95687 27.5444 7.13062 26.1756L6.5625 25.75" stroke="#27AE60" stroke-width="3" stroke-linecap="round" stroke-linejoin="round"/>
<path d="M9.375 27.625V36.0625C9.375 39.5987 9.375 41.365 10.4738 42.4637C11.5725 43.5625 13.3388 43.5625 16.875 43.5625H33.75C37.2863 43.5625 39.0525 43.5625 40.1513 42.4637C41.25 41.365 41.25 39.5987 41.25 36.0625V30.4375C41.25 26.9012 41.25 25.135 40.1513 24.0363C39.0525 22.9375 37.2863 22.9375 33.75 22.9375H17.8125" stroke="#27AE60" stroke-width="3" stroke-linecap="round" stroke-linejoin="round"/>
<path d="M28.5937 33.25C28.5937 34.1202 28.248 34.9548 27.6327 35.5702C27.0173 36.1855 26.1827 36.5312 25.3125 36.5312C24.4423 36.5312 23.6077 36.1855 22.9923 35.5702C22.377 34.9548 22.0312 34.1202 22.0312 33.25C22.0312 32.3798 22.377 31.5452 22.9923 30.9298C23.6077 30.3145 24.4423 29.9688 25.3125 29.9688C26.1827 29.9688 27.0173 30.3145 27.6327 30.9298C28.248 31.5452 28.5937 32.3798 28.5937 33.25Z" stroke="#27AE60" stroke-width="3" stroke-linecap="round" stroke-linejoin="round"/>
</svg>
