<svg width="40" height="40" viewBox="0 0 40 40" fill="none" xmlns="http://www.w3.org/2000/svg">
<path d="M6.66675 29.9987C6.66675 28.2306 7.36913 26.5349 8.61937 25.2847C9.86961 24.0344 11.5653 23.332 13.3334 23.332H26.6667C28.4349 23.332 30.1305 24.0344 31.3808 25.2847C32.631 26.5349 33.3334 28.2306 33.3334 29.9987C33.3334 30.8828 32.9822 31.7306 32.3571 32.3557C31.732 32.9808 30.8841 33.332 30.0001 33.332H10.0001C9.11603 33.332 8.26818 32.9808 7.64306 32.3557C7.01794 31.7306 6.66675 30.8828 6.66675 29.9987Z" stroke="#27AE60" stroke-width="2" stroke-linejoin="round"/>
<path d="M20 16.666C22.7614 16.666 25 14.4274 25 11.666C25 8.90459 22.7614 6.66602 20 6.66602C17.2386 6.66602 15 8.90459 15 11.666C15 14.4274 17.2386 16.666 20 16.666Z" stroke="#27AE60" stroke-width="2"/>
</svg>
