<svg width="40" height="40" viewBox="0 0 40 40" fill="none" xmlns="http://www.w3.org/2000/svg">
<path d="M6.66666 29.9987C6.66666 28.2306 7.36904 26.5349 8.61928 25.2847C9.86952 24.0344 11.5652 23.332 13.3333 23.332H26.6667C28.4348 23.332 30.1305 24.0344 31.3807 25.2847C32.6309 26.5349 33.3333 28.2306 33.3333 29.9987C33.3333 30.8828 32.9821 31.7306 32.357 32.3557C31.7319 32.9808 30.884 33.332 30 33.332H9.99999C9.11593 33.332 8.26809 32.9808 7.64297 32.3557C7.01785 31.7306 6.66666 30.8828 6.66666 29.9987Z" stroke="#AEAEAE" stroke-width="2" stroke-linejoin="round"/>
<path d="M20 16.666C22.7614 16.666 25 14.4274 25 11.666C25 8.90459 22.7614 6.66602 20 6.66602C17.2386 6.66602 15 8.90459 15 11.666C15 14.4274 17.2386 16.666 20 16.666Z" stroke="#AEAEAE" stroke-width="2"/>
</svg>
