<svg width="343" height="354" viewBox="0 0 343 354" fill="none" xmlns="http://www.w3.org/2000/svg">
<path d="M343 270.739H0V270.916H343V270.739Z" fill="#EBEBEB"/>
<path d="M162.582 239.162H30.1223C29.0846 239.16 28.09 238.734 27.3569 237.976C26.6238 237.218 26.2121 236.191 26.2121 235.12V42.9472C26.2211 41.8824 26.6368 40.8643 27.369 40.114C28.1011 39.3636 29.0905 38.9418 30.1223 38.9399H162.582C163.621 38.9399 164.617 39.3659 165.352 40.124C166.086 40.8822 166.499 41.9104 166.499 42.9826V235.12C166.499 236.192 166.086 237.22 165.352 237.978C164.617 238.736 163.621 239.162 162.582 239.162ZM30.1223 39.0815C29.1301 39.0834 28.1791 39.4915 27.4782 40.2163C26.7772 40.941 26.3836 41.9232 26.3836 42.9472V235.12C26.3836 236.144 26.7772 237.126 27.4782 237.851C28.1791 238.575 29.1301 238.983 30.1223 238.985H162.582C163.575 238.983 164.526 238.576 165.229 237.851C165.931 237.126 166.326 236.144 166.328 235.12V42.9472C166.326 41.9226 165.931 40.9404 165.229 40.2158C164.526 39.4913 163.575 39.0834 162.582 39.0815H30.1223Z" fill="#EBEBEB"/>
<path d="M310.971 239.162H178.504C177.466 239.16 176.47 238.734 175.736 237.976C175.002 237.218 174.589 236.191 174.587 235.12V42.9472C174.598 41.8818 175.015 40.8636 175.748 40.1135C176.482 39.3634 177.472 38.9417 178.504 38.9399H310.971C312.001 38.9436 312.989 39.3663 313.72 40.1164C314.45 40.8666 314.865 41.8836 314.874 42.9472V235.12C314.874 236.189 314.463 237.216 313.732 237.973C313 238.731 312.007 239.159 310.971 239.162ZM178.504 39.0815C177.511 39.0834 176.56 39.4913 175.858 40.2158C175.156 40.9404 174.76 41.9226 174.759 42.9472V235.12C174.76 236.144 175.156 237.126 175.858 237.851C176.56 238.576 177.511 238.983 178.504 238.985H310.971C311.963 238.983 312.915 238.576 313.617 237.851C314.319 237.126 314.714 236.144 314.716 235.12V42.9472C314.714 41.9226 314.319 40.9404 313.617 40.2158C312.915 39.4913 311.963 39.0834 310.971 39.0815H178.504Z" fill="#EBEBEB"/>
<path d="M308.631 277.479H286.974V277.656H308.631V277.479Z" fill="#EBEBEB"/>
<path d="M230.043 275.561H207.124V275.738H230.043V275.561Z" fill="#EBEBEB"/>
<path d="M314.888 284.057H272.061V284.234H314.888V284.057Z" fill="#EBEBEB"/>
<path d="M49.1793 282.867H35.9876V283.044H49.1793V282.867Z" fill="#EBEBEB"/>
<path d="M76.0705 282.867H55.2916V283.044H76.0705V282.867Z" fill="#EBEBEB"/>
<path d="M167.48 279.879H130.052V280.056H167.48V279.879Z" fill="#EBEBEB"/>
<path d="M313.125 180.71C306.169 177.701 294.644 180.604 285.095 192.555C280.684 198.077 276.431 206.177 275.285 214.467C275.36 205.009 275.456 194.849 275.546 185.255C276.598 180.55 278.257 176.011 280.478 171.761C287.482 157.233 293.272 158.84 302.787 147.469C318.613 128.552 327.682 92.8613 311.938 107.113C297.662 119.999 290.754 132.899 285.959 144.092C279.47 159.222 276.863 169.778 275.594 180.37C275.683 171.364 275.765 163.095 275.841 156.716C276.088 135.908 276.636 129.217 276.739 127.15C276.986 122.144 278.585 119.227 279.031 118.512C282.783 112.43 288.676 108.451 294.445 101.52C307.897 85.3848 315.663 65.4121 309.18 63.5289C302.409 61.596 293.512 70.4035 283.627 91.0842C277.96 102.936 276.513 105.74 275.395 128.962C275.299 130.98 274.866 138.584 274.661 149.147C273.062 137.784 270.023 126.491 264.721 119.008C254.492 104.572 246.713 103.191 241.047 104.572C235.38 105.952 237.754 121.11 244.147 129.21C253.751 141.402 269.804 138.811 274.558 155.031C274.318 169.354 274.146 187.493 274.05 204.385C272.431 195.663 270.737 188.406 267.019 181.574C260.104 168.872 251.597 163.329 245.753 169.311C242.11 173.035 246.336 183.471 253.95 187.719C261.682 192.066 268.027 198.077 270.483 201.695C271.052 202.538 272.953 205.766 274.036 207.628C273.934 228.252 273.947 246.455 274.119 252.664L275.086 252.756C275.024 251.156 275.086 240.663 275.168 226.779C276.856 209.455 288.71 208.513 296.29 205.214C309.839 199.302 320.081 183.726 313.125 180.71Z" fill="#E6E6E6"/>
<path d="M264.796 270.739H284.786C285.277 270.769 285.764 270.631 286.171 270.345C286.578 270.06 286.883 269.643 287.036 269.16L288.463 243.552H261.133L262.546 269.139C262.697 269.625 263 270.046 263.407 270.335C263.814 270.625 264.302 270.767 264.796 270.739Z" fill="#E6E6E6"/>
<path d="M261.634 252.282H287.962C288.593 252.282 289.122 251.425 289.197 250.292L289.732 241.655C289.814 240.323 289.238 239.162 288.504 239.162H261.064C260.323 239.162 259.747 240.323 259.836 241.655L260.371 250.292C260.467 251.425 261.002 252.282 261.634 252.282Z" fill="#F5F5F5"/>
<path d="M127.596 215.565H101.645V266.052H127.596V215.565Z" fill="#F0F0F0"/>
<path d="M234.619 266.052H106.632V270.739H234.619V266.052Z" fill="#F0F0F0"/>
<path d="M127.596 266.045H239.599V215.558H127.596V266.045Z" fill="#FAFAFA"/>
<path d="M137.804 237.244H229.398V221.71H137.804V237.244Z" fill="#F0F0F0"/>
<path d="M137.804 257.202H229.398V241.669H137.804V257.202Z" fill="#F0F0F0"/>
<path d="M194.838 219.777H172.364C171.493 219.777 170.787 220.506 170.787 221.406V221.477C170.787 222.376 171.493 223.105 172.364 223.105H194.838C195.709 223.105 196.416 222.376 196.416 221.477V221.406C196.416 220.506 195.709 219.777 194.838 219.777Z" fill="#FAFAFA"/>
<path d="M194.838 239.736H172.364C171.493 239.736 170.787 240.465 170.787 241.364V241.435C170.787 242.334 171.493 243.063 172.364 243.063H194.838C195.709 243.063 196.416 242.334 196.416 241.435V241.364C196.416 240.465 195.709 239.736 194.838 239.736Z" fill="#FAFAFA"/>
<path d="M243.064 211.033H127.603V215.558H243.064V211.033Z" fill="#F0F0F0"/>
<path d="M98.0157 215.565H127.596V211.041H98.0157V215.565Z" fill="#E6E6E6"/>
<path d="M76.7222 231.148C73.7587 229.548 68.5588 230.376 63.9009 235.282C61.4291 237.863 59.6573 241.069 58.7628 244.578C59.1401 240.408 59.5585 235.92 59.9495 231.686C60.5892 229.648 61.4889 227.708 62.6249 225.916C66.2539 219.77 68.7578 220.705 73.3746 216.053C81.0715 208.315 86.4086 192.894 78.9106 198.566C73.5452 202.585 69.1506 207.828 66.0687 213.887C62.6387 220.322 61.102 224.882 60.1485 229.512C60.5189 225.54 60.8345 221.887 61.1295 219.069C62.0075 209.865 62.5015 206.948 62.6181 206.042C62.7472 204.702 63.2052 203.418 63.9489 202.311C65.856 199.769 68.6 198.24 71.3852 195.408C77.9227 188.802 82.0868 180.271 79.2947 179.195C76.3724 178.076 72.1123 181.623 66.9879 190.367C64.045 195.387 63.3041 196.569 61.9458 206.785C61.8223 207.677 61.3558 211.033 60.8756 215.678C60.5875 210.594 59.6614 205.49 57.5897 201.971C53.604 195.188 50.2152 194.275 47.6633 194.7C45.1114 195.125 45.6053 201.879 48.1229 205.709C51.9302 211.472 59.0989 210.956 60.615 218.312C59.9838 224.627 59.243 232.642 58.557 240.104C58.1659 236.182 57.6857 232.911 56.2932 229.746C53.7069 223.862 50.1192 221.08 47.3752 223.494C45.6327 224.995 47.1145 229.767 50.325 231.99C53.5354 234.213 56.1628 237.116 57.1164 238.815C57.3359 239.205 58.0562 240.713 58.4884 241.577C57.624 250.632 56.9792 258.668 56.8282 261.415L57.2741 261.478C57.3084 260.77 57.7132 256.14 58.2688 250.009C59.6408 242.412 64.923 242.462 68.3942 241.3C74.5888 239.233 79.6858 232.748 76.7222 231.148Z" fill="#F0F0F0"/>
<path d="M30.8288 215.373C34.6636 213.589 41.1188 215.027 46.6068 221.547C49.5233 224.968 51.5196 229.118 52.3967 233.583C52.2115 228.309 52.0194 222.645 51.8273 217.299C51.1716 214.692 50.1819 212.188 48.8844 209.851C44.7684 201.858 41.5579 202.842 36.0905 196.647C26.9872 186.338 21.4101 166.578 30.4035 174.267C36.8478 179.729 41.9881 186.647 45.4269 194.487C49.2617 202.828 50.8669 208.647 51.7313 214.559C51.5529 209.54 51.3814 204.93 51.2442 201.369C50.812 189.772 50.4073 186.048 50.3181 184.894C50.2549 183.208 49.7832 181.565 48.9461 180.115C46.7646 176.78 43.4581 174.656 40.0967 170.876C32.3655 162.082 27.7487 151.052 31.3296 149.919C35.082 148.737 40.1722 153.508 45.9826 164.886C49.3165 171.414 50.1603 172.95 51.1344 185.885C51.2236 187.011 51.5666 191.245 51.8204 197.135C52.5476 190.763 54.0774 184.434 56.9311 180.143C62.4191 171.931 66.7409 171.046 69.9171 171.725C73.0933 172.405 71.9751 180.929 68.5451 185.517C63.359 192.463 54.3792 191.259 51.9645 200.385C52.3006 208.364 52.6505 218.482 52.9592 227.898C53.7344 223.013 54.5782 218.935 56.547 215.069C60.2239 207.876 64.8887 204.654 68.209 207.904C70.267 209.922 68.0924 215.805 63.9009 218.312C59.7094 220.818 56.252 224.365 54.9349 226.418C54.6262 226.893 53.6178 228.726 53.0415 229.781C53.3982 241.279 53.6521 251.432 53.6452 254.894L53.0758 254.944C53.0758 254.051 52.9112 248.203 52.6505 240.458C51.45 230.808 44.837 230.482 40.5632 228.762C32.928 225.689 26.9941 217.158 30.8288 215.373Z" fill="#E6E6E6"/>
<path d="M47.0527 270.739H64.7858C65.2241 270.763 65.6579 270.638 66.02 270.382C66.3821 270.126 66.6523 269.754 66.789 269.323L68.0443 246.625H43.7942L45.0565 269.323C45.1908 269.754 45.4595 270.126 45.8207 270.382C46.1819 270.639 46.6151 270.764 47.0527 270.739Z" fill="#E6E6E6"/>
<path d="M44.2401 254.37H67.5984C68.161 254.37 68.6274 253.606 68.696 252.6L69.1694 244.94C69.2448 243.757 68.7372 242.731 68.0786 242.731H43.7668C43.0808 242.731 42.6006 243.757 42.6692 244.94L43.1494 252.6C43.218 253.606 43.6845 254.37 44.2401 254.37Z" fill="#F5F5F5"/>
<path d="M187.436 56.5408H41.2903V141.826H187.436V56.5408Z" fill="#E6E6E6"/>
<path d="M192.005 56.5408H42.0655V141.826H192.005V56.5408Z" fill="#F5F5F5"/>
<path d="M188.355 135.108V63.2668C188.355 61.6324 187.071 60.3074 185.488 60.3074L48.5757 60.3074C46.992 60.3074 45.7082 61.6324 45.7082 63.2668V135.108C45.7082 136.742 46.992 138.067 48.5757 138.067H185.488C187.071 138.067 188.355 136.742 188.355 135.108Z" fill="white"/>
<path d="M171.5 302.712C244.959 302.712 304.509 299.124 304.509 294.698C304.509 290.272 244.959 286.683 171.5 286.683C98.0414 286.683 38.4915 290.272 38.4915 294.698C38.4915 299.124 98.0414 302.712 171.5 302.712Z" fill="#F5F5F5"/>
<path d="M275.71 221.186H259.246V220.478H275.71C277.647 220.437 279.538 219.868 281.192 218.828C282.846 217.789 284.205 216.316 285.129 214.559L285.733 214.899C284.749 216.767 283.303 218.333 281.543 219.438C279.783 220.542 277.77 221.145 275.71 221.186Z" fill="#2E7D32"/>
<path d="M255.988 220.478H249.244V221.186H255.988V220.478Z" fill="#2E7D32"/>
<path d="M275.71 218.708H83.0815C82.0253 218.729 80.9769 218.518 80.0059 218.089C79.0349 217.66 78.1636 217.022 77.4498 216.219C76.736 215.415 76.1961 214.464 75.8661 213.428C75.536 212.393 75.4233 211.296 75.5355 210.212L85.9421 87.0203C86.1748 84.7277 87.2082 82.6009 88.8494 81.0374C90.4906 79.4739 92.6272 78.5805 94.8601 78.5243H287.489C288.545 78.5042 289.593 78.716 290.563 79.1456C291.534 79.5752 292.404 80.2129 293.118 81.0163C293.832 81.8197 294.371 82.7704 294.702 83.8055C295.032 84.8406 295.146 85.9364 295.035 87.0203L284.69 210.212C284.456 212.516 283.414 214.651 281.76 216.216C280.105 217.781 277.954 218.667 275.71 218.708Z" fill="#27AE60"/>
<path d="M271.697 216.124H83.8704C82.9711 216.138 82.0792 215.954 81.2541 215.584C80.429 215.215 79.6895 214.669 79.0848 213.981C78.4801 213.294 78.0239 212.482 77.7467 211.599C77.4694 210.716 77.3775 209.782 77.4768 208.86L86.9574 96.6348C87.014 96.0723 87.2676 95.5505 87.6705 95.1673C88.0734 94.7841 88.5979 94.5657 89.1457 94.5533H286.968C287.226 94.5486 287.482 94.6008 287.719 94.7063C287.956 94.8119 288.169 94.9683 288.343 95.1652C288.516 95.3622 288.648 95.5951 288.728 95.8485C288.808 96.1019 288.834 96.3699 288.806 96.6348L279.319 208.86C279.126 210.822 278.245 212.644 276.841 213.982C275.437 215.32 273.608 216.082 271.697 216.124Z" fill="white"/>
<path d="M107.812 88.9672C106.516 88.99 105.23 88.7281 104.04 88.1989C102.85 87.6696 101.782 86.8851 100.909 85.8974C100.035 84.9098 99.3743 83.7416 98.9713 82.4704C98.5684 81.1991 98.432 79.854 98.5713 78.5242C98.8533 75.702 100.124 73.0832 102.146 71.1602C104.167 69.2371 106.799 68.1422 109.547 68.0812C110.843 68.0583 112.128 68.3202 113.318 68.8495C114.508 69.3788 115.575 70.1635 116.449 71.1512C117.322 72.139 117.982 73.3074 118.384 74.5786C118.786 75.8498 118.921 77.1948 118.781 78.5242H114.665C114.748 77.7348 114.667 76.9362 114.428 76.1815C114.188 75.4268 113.796 74.7334 113.277 74.1473C112.758 73.5613 112.123 73.0961 111.417 72.7826C110.71 72.4691 109.946 72.3145 109.177 72.3292C107.543 72.3601 105.977 73.0074 104.773 74.1487C103.57 75.29 102.814 76.8465 102.646 78.5242C102.563 79.3137 102.644 80.1123 102.884 80.867C103.123 81.6216 103.515 82.315 104.034 82.9011C104.554 83.4871 105.188 83.9524 105.895 84.2659C106.601 84.5793 107.365 84.7339 108.134 84.7192L107.812 88.9672Z" fill="#263238"/>
<path d="M148.526 88.9672C147.228 88.9941 145.939 88.7352 144.746 88.2077C143.552 87.6803 142.481 86.8964 141.604 85.9082C140.727 84.9201 140.065 83.7505 139.66 82.4772C139.255 81.204 139.118 79.8564 139.258 78.5242C139.54 75.702 140.811 73.0832 142.832 71.1602C144.853 69.2371 147.486 68.1422 150.234 68.0812C151.53 68.0583 152.815 68.3202 154.005 68.8495C155.195 69.3788 156.262 70.1635 157.135 71.1512C158.009 72.139 158.668 73.3074 159.07 74.5786C159.473 75.8498 159.608 77.1948 159.468 78.5242H155.352C155.434 77.7348 155.354 76.9362 155.114 76.1815C154.875 75.4268 154.483 74.7334 153.963 74.1473C153.444 73.5613 152.81 73.0961 152.103 72.7826C151.396 72.4691 150.633 72.3145 149.864 72.3292C148.23 72.3601 146.663 73.0074 145.46 74.1487C144.257 75.29 143.5 76.8465 143.333 78.5242C143.251 79.3134 143.333 80.1116 143.573 80.8657C143.812 81.6199 144.205 82.3129 144.724 82.8987C145.243 83.4844 145.876 83.9497 146.583 84.2636C147.289 84.5774 148.052 84.7328 148.821 84.7192L148.526 88.9672Z" fill="#263238"/>
<path d="M189.24 88.9672C187.945 88.989 186.66 88.7263 185.471 88.1966C184.281 87.6669 183.215 86.8823 182.341 85.8947C181.468 84.9072 180.808 83.7394 180.406 82.4686C180.003 81.1979 179.867 79.8534 180.006 78.5242C180.285 75.7008 181.556 73.0803 183.577 71.1567C185.599 69.233 188.233 68.1392 190.982 68.0812C192.278 68.0583 193.563 68.3202 194.753 68.8495C195.943 69.3788 197.01 70.1635 197.884 71.1512C198.757 72.139 199.417 73.3074 199.819 74.5786C200.221 75.8498 200.356 77.1948 200.216 78.5242H196.1C196.184 77.7345 196.104 76.9355 195.865 76.1803C195.626 75.4251 195.234 74.7312 194.714 74.1449C194.195 73.5586 193.56 73.0934 192.853 72.7803C192.146 72.4672 191.382 72.3134 190.612 72.3292C188.979 72.3603 187.413 73.0078 186.211 74.1493C185.009 75.2907 184.254 76.8471 184.088 78.5242C184.005 79.3137 184.086 80.1123 184.325 80.867C184.565 81.6216 184.957 82.315 185.476 82.9011C185.995 83.4871 186.63 83.9524 187.336 84.2659C188.043 84.5793 188.807 84.7339 189.576 84.7192L189.24 88.9672Z" fill="#263238"/>
<path d="M229.954 88.9672C228.659 88.989 227.374 88.7263 226.185 88.1966C224.995 87.6669 223.929 86.8823 223.055 85.8947C222.182 84.9072 221.523 83.7393 221.12 82.4686C220.717 81.1979 220.581 79.8534 220.72 78.5242C221.001 75.7014 222.272 73.0818 224.293 71.1584C226.315 69.2351 228.948 68.1407 231.696 68.0812C232.992 68.0584 234.278 68.3203 235.468 68.8496C236.658 69.3788 237.726 70.1633 238.6 71.151C239.474 72.1386 240.134 73.3068 240.537 74.5781C240.94 75.8493 241.076 77.1944 240.937 78.5242H236.821C236.904 77.7348 236.823 76.9361 236.584 76.1815C236.344 75.4268 235.952 74.7334 235.433 74.1473C234.914 73.5613 234.279 73.096 233.573 72.7826C232.866 72.4691 232.102 72.3145 231.333 72.3292C229.7 72.3603 228.134 73.0078 226.932 74.1492C225.73 75.2907 224.975 76.8471 224.809 78.5242C224.726 79.3137 224.807 80.1123 225.046 80.8669C225.286 81.6216 225.678 82.315 226.197 82.9011C226.716 83.4871 227.351 83.9524 228.057 84.2658C228.764 84.5793 229.528 84.7339 230.297 84.7192L229.954 88.9672Z" fill="#263238"/>
<path d="M270.668 88.9672C269.373 88.989 268.088 88.7263 266.899 88.1966C265.709 87.6669 264.643 86.8823 263.77 85.8947C262.896 84.9072 262.237 83.7393 261.834 82.4686C261.432 81.1979 261.295 79.8534 261.435 78.5242C261.715 75.7014 262.986 73.0818 265.007 71.1584C267.029 69.2351 269.662 68.1407 272.411 68.0812C273.706 68.0584 274.992 68.3203 276.182 68.8496C277.372 69.3788 278.44 70.1633 279.314 71.151C280.188 72.1386 280.848 73.3068 281.251 74.5781C281.654 75.8493 281.79 77.1944 281.651 78.5242H277.535C277.618 77.7348 277.537 76.9361 277.298 76.1815C277.058 75.4268 276.666 74.7334 276.147 74.1473C275.628 73.5613 274.994 73.096 274.287 72.7826C273.58 72.4691 272.816 72.3145 272.047 72.3292C270.414 72.3618 268.85 73.0098 267.648 74.151C266.446 75.2922 265.69 76.8477 265.523 78.5242C265.44 79.3137 265.521 80.1123 265.761 80.8669C266 81.6216 266.392 82.315 266.911 82.9011C267.43 83.4871 268.065 83.9524 268.772 84.2658C269.478 84.5793 270.242 84.7339 271.011 84.7192L270.668 88.9672Z" fill="#263238"/>
<path d="M271.203 211.034H85.5236C85.4797 211.035 85.436 211.027 85.3956 211.009C85.3551 210.991 85.319 210.964 85.2896 210.931C85.2602 210.897 85.2383 210.857 85.2254 210.814C85.2125 210.77 85.2089 210.725 85.2149 210.68L94.4691 101.18C94.4775 101.084 94.5201 100.995 94.5885 100.93C94.6569 100.865 94.7463 100.828 94.8395 100.826H280.512C280.556 100.825 280.6 100.834 280.641 100.851C280.682 100.869 280.718 100.896 280.748 100.929C280.778 100.963 280.801 101.002 280.814 101.046C280.828 101.089 280.833 101.135 280.828 101.18L271.574 210.68C271.565 210.775 271.523 210.865 271.454 210.93C271.386 210.995 271.296 211.032 271.203 211.034ZM85.9284 210.326H270.915L280.114 101.534H95.1276L85.9284 210.326Z" fill="#E0E0E0"/>
<path d="M273.028 189.135H87.3758C87.3322 189.135 87.2891 189.126 87.2492 189.108C87.2093 189.09 87.1736 189.063 87.1445 189.03C87.1153 188.996 87.0933 188.957 87.08 188.914C87.0667 188.871 87.0623 188.826 87.0671 188.781C87.0741 188.685 87.1161 188.595 87.1849 188.529C87.2536 188.463 87.3439 188.427 87.4376 188.427H273.11C273.154 188.426 273.198 188.434 273.239 188.452C273.28 188.47 273.316 188.496 273.346 188.53C273.376 188.563 273.399 188.603 273.413 188.647C273.426 188.69 273.431 188.736 273.426 188.781C273.414 188.881 273.367 188.972 273.293 189.037C273.22 189.103 273.125 189.138 273.028 189.135Z" fill="#E0E0E0"/>
<path d="M274.901 167.237H89.228C89.1842 167.237 89.1408 167.228 89.1006 167.209C89.0604 167.191 89.0243 167.165 88.9946 167.132C88.9649 167.098 88.9423 167.059 88.9281 167.016C88.914 166.973 88.9086 166.928 88.9125 166.883C88.9225 166.786 88.9665 166.697 89.036 166.632C89.1055 166.567 89.1958 166.53 89.2898 166.529H274.963C275.007 166.527 275.051 166.536 275.091 166.554C275.132 166.571 275.169 166.598 275.198 166.631C275.228 166.665 275.251 166.705 275.265 166.748C275.278 166.791 275.283 166.837 275.278 166.883C275.267 166.979 275.222 167.067 275.153 167.132C275.084 167.197 274.994 167.234 274.901 167.237Z" fill="#E0E0E0"/>
<path d="M276.753 145.331H91.0802C91.0361 145.332 90.9921 145.324 90.9514 145.306C90.9107 145.288 90.8742 145.262 90.8443 145.228C90.8143 145.195 90.7917 145.155 90.778 145.112C90.7643 145.068 90.7597 145.022 90.7647 144.977C90.7761 144.881 90.8205 144.793 90.8897 144.728C90.9589 144.663 91.0484 144.626 91.142 144.623H276.815C276.858 144.623 276.901 144.632 276.941 144.65C276.981 144.668 277.017 144.695 277.046 144.729C277.075 144.762 277.097 144.801 277.111 144.844C277.124 144.887 277.128 144.932 277.123 144.977C277.116 145.073 277.074 145.164 277.006 145.229C276.937 145.295 276.847 145.331 276.753 145.331Z" fill="#E0E0E0"/>
<path d="M278.605 123.433H92.9324C92.8883 123.434 92.8443 123.426 92.8036 123.408C92.7629 123.39 92.7264 123.364 92.6964 123.33C92.6665 123.296 92.644 123.257 92.6302 123.213C92.6165 123.17 92.6119 123.124 92.6169 123.079C92.6253 122.983 92.6679 122.894 92.7363 122.828C92.8047 122.763 92.8941 122.726 92.9873 122.725H278.667C278.711 122.723 278.755 122.732 278.795 122.75C278.835 122.767 278.872 122.794 278.901 122.828C278.93 122.861 278.952 122.901 278.965 122.945C278.978 122.988 278.982 123.034 278.976 123.079C278.969 123.175 278.927 123.265 278.858 123.331C278.789 123.397 278.699 123.433 278.605 123.433Z" fill="#E0E0E0"/>
<path d="M247.989 211.034C247.945 211.035 247.901 211.027 247.861 211.009C247.821 210.991 247.784 210.964 247.755 210.931C247.726 210.897 247.704 210.857 247.691 210.814C247.678 210.77 247.674 210.725 247.68 210.68L256.934 101.18C256.943 101.084 256.985 100.995 257.054 100.93C257.122 100.865 257.212 100.828 257.305 100.826C257.349 100.825 257.393 100.834 257.434 100.851C257.474 100.869 257.511 100.896 257.541 100.929C257.571 100.963 257.593 101.002 257.607 101.046C257.621 101.089 257.625 101.135 257.62 101.18L248.366 210.68C248.356 210.776 248.312 210.865 248.243 210.931C248.173 210.996 248.083 211.032 247.989 211.034Z" fill="#E0E0E0"/>
<path d="M224.782 211.034C224.737 211.035 224.694 211.026 224.653 211.009C224.612 210.991 224.576 210.964 224.546 210.931C224.516 210.897 224.493 210.858 224.479 210.814C224.466 210.771 224.461 210.725 224.466 210.68L233.72 101.18C233.73 101.084 233.774 100.995 233.844 100.929C233.913 100.864 234.004 100.828 234.097 100.826C234.141 100.825 234.185 100.833 234.226 100.851C234.266 100.869 234.302 100.896 234.332 100.929C234.361 100.963 234.383 101.003 234.396 101.046C234.409 101.09 234.412 101.135 234.406 101.18L225.152 210.68C225.145 210.776 225.103 210.866 225.034 210.932C224.966 210.998 224.875 211.034 224.782 211.034Z" fill="#E0E0E0"/>
<path d="M201.574 211.034C201.53 211.035 201.486 211.026 201.445 211.009C201.405 210.991 201.368 210.964 201.338 210.931C201.308 210.897 201.286 210.858 201.272 210.814C201.258 210.771 201.254 210.725 201.259 210.68L210.513 101.18C210.523 101.084 210.567 100.995 210.636 100.929C210.706 100.864 210.796 100.828 210.89 100.826C210.934 100.825 210.978 100.833 211.018 100.851C211.059 100.869 211.095 100.896 211.124 100.929C211.154 100.963 211.175 101.003 211.188 101.046C211.201 101.09 211.205 101.135 211.199 101.18L201.945 210.68C201.936 210.775 201.894 210.865 201.825 210.93C201.757 210.995 201.667 211.032 201.574 211.034Z" fill="#E0E0E0"/>
<path d="M178.36 211.034C178.316 211.035 178.272 211.026 178.231 211.009C178.19 210.991 178.154 210.964 178.124 210.931C178.094 210.897 178.072 210.857 178.058 210.814C178.044 210.771 178.04 210.725 178.044 210.68L187.278 101.18C187.286 101.084 187.329 100.995 187.397 100.93C187.466 100.865 187.555 100.828 187.648 100.826C187.693 100.825 187.737 100.834 187.777 100.851C187.818 100.869 187.854 100.896 187.884 100.929C187.914 100.963 187.937 101.002 187.951 101.046C187.964 101.089 187.969 101.135 187.964 101.18L178.737 210.68C178.729 210.777 178.685 210.867 178.615 210.932C178.546 210.998 178.454 211.034 178.36 211.034Z" fill="#E0E0E0"/>
<path d="M155.153 211.034C155.109 211.035 155.065 211.027 155.025 211.009C154.984 210.991 154.948 210.964 154.919 210.931C154.889 210.897 154.867 210.857 154.854 210.814C154.841 210.77 154.838 210.725 154.844 210.68L164.098 101.18C164.105 101.084 164.147 100.994 164.216 100.928C164.285 100.862 164.375 100.826 164.468 100.826C164.513 100.825 164.557 100.834 164.597 100.851C164.638 100.869 164.675 100.896 164.704 100.929C164.734 100.963 164.757 101.002 164.771 101.046C164.784 101.089 164.789 101.135 164.784 101.18L155.53 210.68C155.52 210.776 155.476 210.865 155.406 210.931C155.337 210.996 155.247 211.032 155.153 211.034Z" fill="#E0E0E0"/>
<path d="M131.945 211.034C131.901 211.035 131.857 211.026 131.816 211.009C131.776 210.991 131.739 210.964 131.709 210.931C131.679 210.897 131.657 210.858 131.643 210.814C131.629 210.771 131.625 210.725 131.63 210.68L140.884 101.18C140.894 101.084 140.938 100.995 141.007 100.929C141.077 100.864 141.167 100.828 141.261 100.826C141.305 100.825 141.349 100.833 141.389 100.851C141.43 100.869 141.466 100.896 141.495 100.929C141.525 100.963 141.546 101.003 141.559 101.046C141.572 101.09 141.576 101.135 141.57 101.18L132.316 210.68C132.309 210.776 132.267 210.866 132.198 210.932C132.129 210.998 132.039 211.034 131.945 211.034Z" fill="#E0E0E0"/>
<path d="M108.738 211.034C108.694 211.035 108.65 211.026 108.609 211.009C108.568 210.991 108.532 210.964 108.502 210.931C108.472 210.897 108.449 210.858 108.436 210.814C108.422 210.771 108.417 210.725 108.422 210.68L117.676 101.18C117.686 101.084 117.73 100.995 117.8 100.929C117.869 100.864 117.96 100.828 118.054 100.826C118.098 100.825 118.141 100.833 118.182 100.851C118.222 100.869 118.258 100.896 118.288 100.929C118.317 100.963 118.339 101.003 118.352 101.046C118.365 101.09 118.368 101.135 118.362 101.18L109.108 210.68C109.1 210.775 109.057 210.865 108.989 210.93C108.92 210.995 108.831 211.032 108.738 211.034Z" fill="#E0E0E0"/>
<path d="M202.83 142.789H188.65C188.369 142.794 188.091 142.737 187.833 142.622C187.575 142.507 187.344 142.337 187.155 142.122C186.967 141.908 186.824 141.655 186.738 141.379C186.651 141.103 186.622 140.812 186.654 140.524L187.751 127.532C187.81 126.919 188.085 126.349 188.524 125.932C188.963 125.514 189.535 125.277 190.132 125.266H204.311C204.593 125.26 204.872 125.317 205.13 125.431C205.389 125.546 205.621 125.716 205.811 125.93C206 126.145 206.143 126.399 206.23 126.675C206.317 126.951 206.346 127.243 206.314 127.532L205.217 140.524C205.158 141.138 204.882 141.708 204.442 142.126C204.002 142.544 203.428 142.78 202.83 142.789Z" fill="#2E7D32"/>
<path opacity="0.6" d="M202.83 142.789H188.65C188.369 142.794 188.091 142.737 187.833 142.622C187.575 142.507 187.344 142.337 187.155 142.122C186.967 141.908 186.824 141.655 186.738 141.379C186.651 141.103 186.622 140.812 186.654 140.524L187.751 127.532C187.81 126.919 188.085 126.349 188.524 125.932C188.963 125.514 189.535 125.277 190.132 125.266H204.311C204.593 125.26 204.872 125.317 205.13 125.431C205.389 125.546 205.621 125.716 205.811 125.93C206 126.145 206.143 126.399 206.23 126.675C206.317 126.951 206.346 127.243 206.314 127.532L205.217 140.524C205.158 141.138 204.882 141.708 204.442 142.126C204.002 142.544 203.428 142.78 202.83 142.789Z" fill="#BEE7CF"/>
<path d="M301.765 142.789H286.858L288.333 125.266H303.246L297.642 134.031L301.765 142.789Z" fill="white"/>
<path d="M302.32 143.143H286.48L288.024 124.912H303.898L298.074 134.031L302.32 143.143ZM287.228 142.435H301.202L297.244 134.031L302.622 125.62H288.648L287.228 142.435Z" fill="#2E7D32"/>
<path d="M247.262 164.688H233.082C232.802 164.694 232.523 164.637 232.265 164.523C232.007 164.409 231.775 164.24 231.586 164.026C231.396 163.812 231.253 163.559 231.166 163.284C231.078 163.009 231.049 162.717 231.079 162.429L232.177 149.43C232.239 148.818 232.516 148.25 232.955 147.834C233.395 147.418 233.967 147.182 234.564 147.172H248.744C249.024 147.167 249.302 147.224 249.56 147.339C249.817 147.453 250.048 147.623 250.237 147.836C250.427 148.05 250.57 148.302 250.658 148.577C250.746 148.852 250.776 149.143 250.747 149.43L249.649 162.429C249.587 163.042 249.31 163.61 248.87 164.026C248.431 164.442 247.858 164.677 247.262 164.688Z" fill="#2E7D32"/>
<path opacity="0.4" d="M247.262 164.688H233.082C232.802 164.694 232.523 164.637 232.265 164.523C232.007 164.409 231.775 164.24 231.586 164.026C231.396 163.812 231.253 163.559 231.166 163.284C231.078 163.009 231.049 162.717 231.079 162.429L232.177 149.43C232.239 148.818 232.516 148.25 232.955 147.834C233.395 147.418 233.967 147.182 234.564 147.172H248.744C249.024 147.167 249.302 147.224 249.56 147.339C249.817 147.453 250.048 147.623 250.237 147.836C250.427 148.05 250.57 148.302 250.658 148.577C250.746 148.852 250.776 149.143 250.747 149.43L249.649 162.429C249.587 163.042 249.31 163.61 248.87 164.026C248.431 164.442 247.858 164.677 247.262 164.688Z" fill="#BEE7CF"/>
<path d="M274.434 120.891H236.787C236.505 120.897 236.226 120.841 235.968 120.726C235.709 120.611 235.477 120.441 235.287 120.227C235.098 120.012 234.955 119.758 234.868 119.482C234.781 119.206 234.752 118.914 234.784 118.625L235.881 105.634C235.94 105.02 236.215 104.451 236.654 104.033C237.092 103.616 237.665 103.379 238.262 103.368H275.916C276.197 103.363 276.476 103.42 276.734 103.535C276.992 103.65 277.223 103.82 277.413 104.035C277.602 104.249 277.745 104.502 277.832 104.778C277.92 105.054 277.949 105.345 277.919 105.634L276.822 118.625C276.763 119.24 276.487 119.81 276.047 120.228C275.606 120.646 275.032 120.882 274.434 120.891Z" fill="#27AE60"/>
<path d="M124.248 139.83C118.527 139.83 113.759 137.741 110.377 133.741C106.035 128.594 105.383 122.208 108.669 117.068C113.547 109.457 126.258 105.4 134.621 106.526C134.664 106.531 134.707 106.547 134.744 106.57C134.782 106.594 134.814 106.625 134.84 106.663C134.865 106.7 134.882 106.742 134.891 106.787C134.899 106.832 134.898 106.878 134.888 106.922C134.867 107.016 134.814 107.098 134.738 107.154C134.662 107.21 134.569 107.236 134.477 107.227C126.32 106.129 113.958 110.059 109.239 117.422C105.521 123.227 107.668 129.401 110.919 133.253C115.454 138.619 121.635 139.377 126.011 139.058C134.374 138.456 143.532 133.522 148.807 126.781C150.282 124.898 152.546 121.28 151.16 118.285C149.102 113.804 142.242 114.115 136.521 114.88C136.478 114.886 136.434 114.883 136.392 114.87C136.35 114.858 136.312 114.837 136.278 114.808C136.245 114.78 136.217 114.744 136.198 114.704C136.178 114.664 136.167 114.62 136.164 114.576C136.162 114.479 136.194 114.385 136.255 114.312C136.316 114.239 136.401 114.191 136.493 114.179C140.321 113.662 149.28 112.466 151.784 117.946C153.335 121.316 150.906 125.21 149.328 127.235C143.93 134.131 134.552 139.186 126.004 139.795C125.415 139.809 124.852 139.83 124.248 139.83Z" fill="#27AE60"/>
<path d="M238.728 160.787H238.673C238.566 160.779 238.462 160.742 238.373 160.68C238.284 160.618 238.212 160.533 238.165 160.433C237.459 158.763 236.487 157.227 235.291 155.887C235.156 155.749 235.08 155.562 235.08 155.366C235.079 155.17 235.154 154.982 235.288 154.843C235.421 154.704 235.603 154.626 235.793 154.625C235.983 154.624 236.165 154.701 236.3 154.839C237.4 156.026 238.31 157.386 238.996 158.868C241.353 156.37 243.906 154.077 246.631 152.015C246.772 151.901 246.952 151.849 247.13 151.87C247.308 151.892 247.471 151.984 247.584 152.128C247.637 152.206 247.673 152.294 247.692 152.387C247.711 152.48 247.711 152.576 247.693 152.669C247.675 152.762 247.639 152.851 247.588 152.929C247.536 153.008 247.47 153.075 247.392 153.126C244.47 155.331 241.753 157.813 239.277 160.539C239.207 160.617 239.122 160.679 239.027 160.722C238.933 160.765 238.831 160.787 238.728 160.787Z" fill="white"/>
<path d="M213.463 207.677C212.476 207.694 211.498 207.495 210.592 207.092C209.686 206.688 208.874 206.091 208.209 205.339C207.544 204.587 207.042 203.698 206.735 202.73C206.429 201.763 206.325 200.739 206.431 199.727C206.645 197.575 207.616 195.579 209.159 194.115C210.702 192.651 212.712 191.822 214.807 191.783C215.793 191.765 216.772 191.964 217.677 192.366C218.583 192.768 219.395 193.365 220.061 194.116C220.726 194.868 221.228 195.757 221.535 196.724C221.841 197.691 221.945 198.715 221.839 199.727C221.625 201.879 220.654 203.876 219.111 205.341C217.568 206.806 215.559 207.637 213.463 207.677ZM214.718 193.199C213 193.238 211.356 193.922 210.092 195.124C208.829 196.326 208.035 197.963 207.858 199.727C207.77 200.558 207.855 201.4 208.107 202.195C208.358 202.99 208.771 203.721 209.317 204.339C209.863 204.957 210.531 205.448 211.275 205.78C212.02 206.111 212.824 206.275 213.634 206.261C215.352 206.221 216.997 205.535 218.26 204.332C219.523 203.128 220.318 201.491 220.494 199.727C220.58 198.896 220.493 198.056 220.241 197.262C219.988 196.468 219.576 195.738 219.03 195.121C218.484 194.504 217.817 194.014 217.074 193.682C216.33 193.351 215.528 193.186 214.718 193.199Z" fill="#27AE60"/>
<path d="M147.49 163.796C146.504 163.813 145.525 163.613 144.619 163.21C143.714 162.807 142.901 162.209 142.236 161.457C141.571 160.705 141.069 159.816 140.762 158.849C140.456 157.881 140.352 156.857 140.458 155.845C140.673 153.688 141.647 151.687 143.196 150.221C144.745 148.756 146.761 147.928 148.862 147.894C149.848 147.877 150.827 148.077 151.733 148.48C152.638 148.883 153.451 149.48 154.116 150.232C154.781 150.984 155.283 151.874 155.59 152.841C155.896 153.809 156 154.833 155.893 155.845C155.677 158.002 154.703 160.002 153.154 161.467C151.606 162.932 149.591 163.76 147.49 163.796ZM148.711 149.31C146.992 149.349 145.347 150.035 144.083 151.238C142.82 152.442 142.026 154.08 141.851 155.845C141.763 156.677 141.848 157.518 142.1 158.313C142.351 159.109 142.764 159.84 143.31 160.458C143.857 161.076 144.524 161.567 145.268 161.898C146.013 162.23 146.817 162.394 147.627 162.38C149.345 162.339 150.99 161.653 152.253 160.45C153.516 159.247 154.311 157.609 154.487 155.845C154.574 155.015 154.488 154.175 154.237 153.381C153.986 152.587 153.575 151.858 153.03 151.24C152.485 150.622 151.82 150.131 151.078 149.798C150.336 149.466 149.534 149.299 148.725 149.31H148.711Z" fill="#27AE60"/>
<path opacity="0.1" d="M160.894 182.834H89.619C88.9609 182.844 88.3083 182.709 87.7042 182.44C87.1002 182.17 86.5585 181.771 86.115 181.269C85.6715 180.767 85.3362 180.174 85.1314 179.528C84.9266 178.882 84.8568 178.199 84.9268 177.524C85.0719 176.088 85.7201 174.756 86.7496 173.778C87.779 172.8 89.119 172.244 90.5177 172.214H161.793C162.451 172.204 163.104 172.338 163.708 172.608C164.312 172.878 164.854 173.277 165.297 173.779C165.741 174.281 166.076 174.874 166.281 175.52C166.486 176.165 166.555 176.848 166.485 177.524C166.34 178.96 165.692 180.292 164.663 181.27C163.633 182.248 162.293 182.804 160.894 182.834Z" fill="black"/>
<path d="M66.1235 165.962L68.7989 167.145L65.2112 171.683C64.5843 170.556 64.0958 169.352 63.7568 168.1C63.7064 167.917 63.6922 167.725 63.7153 167.536C63.7383 167.347 63.7981 167.165 63.8909 167.001C63.9838 166.836 64.1079 166.692 64.2557 166.578C64.4036 166.464 64.5723 166.383 64.7515 166.337L66.1235 165.962Z" fill="#FF8B7B"/>
<path d="M70.0269 172.044L68.4216 173.885C68.3004 174.024 68.1498 174.134 67.9814 174.204C67.813 174.275 67.6313 174.305 67.45 174.292C67.2687 174.279 67.0926 174.223 66.9353 174.129C66.7779 174.036 66.6434 173.906 66.542 173.75L65.2112 171.711L68.7989 167.173L70.2464 170.713C70.3402 170.933 70.3694 171.176 70.3304 171.412C70.2914 171.649 70.1858 171.869 70.0269 172.044Z" fill="#FF8B7B"/>
<path d="M164.393 181.05L71.6115 173.46C70.9561 173.415 70.3172 173.228 69.7369 172.91C69.1565 172.593 68.6479 172.152 68.2443 171.617C67.8407 171.082 67.5512 170.465 67.395 169.807C67.2388 169.148 67.2193 168.463 67.3378 167.796C67.5928 166.376 68.3414 165.101 69.4428 164.211C70.5443 163.32 71.9229 162.876 73.3197 162.96L166.101 170.543C166.757 170.587 167.396 170.773 167.977 171.091C168.558 171.408 169.067 171.849 169.471 172.384C169.875 172.919 170.164 173.537 170.32 174.196C170.476 174.855 170.495 175.54 170.375 176.207C170.12 177.627 169.372 178.903 168.27 179.795C167.169 180.686 165.79 181.133 164.393 181.05Z" fill="#27AE60"/>
<path d="M98.9281 136.368C100.087 139.065 101.274 141.834 102.475 144.524C103.675 147.214 104.917 149.947 106.248 152.312C106.53 152.805 106.844 153.278 107.188 153.728C107.599 154.231 108.059 154.748 108.525 155.279C109.479 156.334 110.501 157.403 111.523 158.45C113.581 160.574 115.639 162.698 117.697 164.914L115.639 167.683C113.039 166.136 110.52 164.449 108.093 162.628C106.872 161.714 105.678 160.766 104.485 159.732C103.888 159.215 103.298 158.663 102.694 158.061C102.064 157.381 101.488 156.649 100.972 155.873C99.2545 153.218 97.7121 150.445 96.3556 147.576C95.0179 144.779 93.7899 141.997 92.6443 139.08L98.9281 136.368Z" fill="#FF8B7B"/>
<path d="M76.242 135.936C74.6848 138.563 73.0864 141.204 71.4881 143.816L66.7204 151.661L66.1373 152.638L66.0687 152.765V152.822V152.864C66.0344 152.918 66.0046 152.975 65.9795 153.034C65.82 153.51 65.723 154.005 65.6914 154.507C65.6131 155.877 65.6521 157.251 65.808 158.613C66.103 161.502 66.6586 164.553 67.2486 167.506L64.0655 168.723C62.6127 165.818 61.463 162.761 60.6355 159.604C60.1845 157.91 59.9153 156.17 59.8329 154.415C59.785 153.354 59.882 152.291 60.121 151.257C60.2171 150.946 60.2925 150.662 60.4229 150.33L60.6355 149.848L60.7247 149.657L60.7865 149.53L61.3147 148.461C62.6867 145.629 64.2027 142.881 65.7325 140.163C67.2623 137.444 68.8538 134.775 70.5345 132.127L76.242 135.936Z" fill="#FF8B7B"/>
<path d="M94.3936 116.332C94.2701 116.678 94.3456 117.04 94.5651 117.139C94.7846 117.238 95.0659 117.025 95.1962 116.671C95.3266 116.317 95.2442 115.963 95.0247 115.864C94.8052 115.765 94.524 115.978 94.3936 116.332Z" fill="#263238"/>
<path d="M94.3113 117.032C94.3261 118.285 94.5014 119.53 94.8326 120.735C94.5366 120.808 94.2286 120.812 93.9309 120.747C93.6332 120.682 93.3531 120.55 93.1108 120.36L94.3113 117.032Z" fill="#FF5652"/>
<path d="M95.649 114.264C95.6047 114.256 95.564 114.234 95.5324 114.2C95.3267 114.026 95.0837 113.905 94.8236 113.847C94.5635 113.79 94.2938 113.797 94.0369 113.868C94.0094 113.875 93.9808 113.877 93.9527 113.872C93.9245 113.868 93.8976 113.858 93.8733 113.843C93.849 113.828 93.8279 113.808 93.8112 113.784C93.7945 113.76 93.7826 113.733 93.7762 113.705C93.7638 113.649 93.7735 113.589 93.803 113.54C93.8325 113.491 93.8796 113.456 93.934 113.443C94.2605 113.353 94.6032 113.346 94.933 113.422C95.2627 113.499 95.5696 113.656 95.8273 113.882C95.8473 113.902 95.8631 113.927 95.8738 113.953C95.8846 113.98 95.8902 114.009 95.8902 114.038C95.8902 114.067 95.8846 114.095 95.8738 114.122C95.8631 114.149 95.8473 114.173 95.8273 114.193C95.805 114.219 95.7773 114.238 95.7463 114.251C95.7153 114.263 95.682 114.268 95.649 114.264Z" fill="#263238"/>
<path d="M81.8878 117.025C81.4556 120.834 82.1622 125.634 79.6377 127.546C79.6377 127.546 80.166 131.086 86.2371 132.056C92.9118 133.076 89.7905 129.104 89.7905 129.104C86.2439 127.638 86.6349 124.856 87.5473 122.314L81.8878 117.025Z" fill="#FF8B7B"/>
<path d="M77.518 129.939C77.4288 128.183 77.518 125.535 78.5744 125.153C79.7269 124.735 86.5389 125.295 89.9552 128.488C89.1732 130.08 88.7732 131.843 88.789 133.628L77.518 129.939Z" fill="#263238"/>
<path d="M56.643 287.851C56.0254 287.799 55.4239 287.621 54.8731 287.327C54.854 287.318 54.8379 287.303 54.827 287.284C54.816 287.265 54.8106 287.243 54.8114 287.221C54.8129 287.201 54.8203 287.181 54.8324 287.165C54.8446 287.148 54.8611 287.136 54.88 287.129C54.9417 287.129 56.3137 286.563 56.938 286.867C57.0052 286.901 57.065 286.948 57.1134 287.006C57.1619 287.065 57.1979 287.133 57.2193 287.207C57.2576 287.293 57.2683 287.39 57.2498 287.483C57.2313 287.576 57.1846 287.66 57.1164 287.724C56.9791 287.825 56.8106 287.87 56.643 287.851ZM55.1956 287.242C55.8267 287.533 56.7253 287.759 56.9654 287.554C56.9654 287.554 57.0615 287.476 56.9654 287.271C56.952 287.226 56.9299 287.185 56.9004 287.15C56.8709 287.114 56.8347 287.086 56.7939 287.065C56.2557 286.967 55.7014 287.029 55.1956 287.242Z" fill="#2E7D32"/>
<path d="M54.9212 287.342C54.8925 287.341 54.8654 287.328 54.8457 287.306C54.8359 287.29 54.8308 287.272 54.8308 287.253C54.8308 287.234 54.8359 287.216 54.8457 287.2C54.8457 287.143 55.2299 285.855 55.8335 285.55C55.9078 285.515 55.9885 285.497 56.0702 285.497C56.1519 285.497 56.2326 285.515 56.3069 285.55C56.3872 285.57 56.4582 285.619 56.5071 285.688C56.5561 285.756 56.5799 285.841 56.5744 285.926C56.5744 286.457 55.47 287.221 54.976 287.342H54.9212ZM56.0736 285.706C56.0119 285.707 55.951 285.721 55.8953 285.749C55.5054 286.088 55.2253 286.543 55.0927 287.051C55.6072 286.811 56.3137 286.209 56.3343 285.89C56.3343 285.89 56.3343 285.784 56.204 285.735C56.163 285.716 56.1185 285.706 56.0736 285.706Z" fill="#2E7D32"/>
<path d="M91.1282 289.912C90.6679 289.91 90.2087 289.865 89.7562 289.777C89.7368 289.769 89.7201 289.756 89.7084 289.738C89.6966 289.72 89.6903 289.7 89.6903 289.678C89.6903 289.657 89.6966 289.636 89.7084 289.618C89.7201 289.6 89.7368 289.587 89.7562 289.579C89.9826 289.437 91.9857 288.255 92.4659 289.076C92.5146 289.148 92.5408 289.233 92.5408 289.32C92.5408 289.408 92.5146 289.493 92.4659 289.565C92.2601 289.827 91.7045 289.912 91.1282 289.912ZM90.0787 289.614C90.9293 289.742 92.0749 289.721 92.267 289.437C92.267 289.437 92.3287 289.345 92.267 289.19C91.9652 288.722 90.7441 289.253 90.0787 289.614Z" fill="#2E7D32"/>
<path d="M89.7562 289.784C89.7386 289.792 89.719 289.792 89.7014 289.784C89.6853 289.774 89.6723 289.759 89.6638 289.742C89.6554 289.724 89.6517 289.705 89.6533 289.685C89.6711 289.031 89.8924 288.401 90.2845 287.887C90.3657 287.816 90.4596 287.763 90.5609 287.73C90.6622 287.698 90.7687 287.686 90.8744 287.696C91.1763 287.731 91.2654 287.887 91.286 288.014C91.3683 288.552 90.3462 289.537 89.8043 289.792L89.7562 289.784ZM90.7921 287.894C90.6563 287.895 90.5251 287.945 90.4217 288.036C90.1052 288.439 89.9182 288.934 89.8866 289.452C90.4285 289.105 91.1282 288.326 91.0734 288C91.0734 288 91.0734 287.887 90.8538 287.866L90.7921 287.894Z" fill="#2E7D32"/>
<path d="M84.7965 289.671H89.3103L89.3584 278.874H84.8376L84.7965 289.671Z" fill="#FF8B7B"/>
<path d="M49.8105 286.329L54.0431 287.342L57.5966 276.665L53.3639 275.653L49.8105 286.329Z" fill="#FF8B7B"/>
<path d="M54.7016 286.62L49.783 285.324C49.6973 285.299 49.6058 285.307 49.5252 285.346C49.4445 285.385 49.3802 285.452 49.344 285.536L47.6496 289.367C47.6086 289.462 47.5885 289.566 47.5908 289.67C47.5932 289.774 47.6178 289.877 47.6631 289.97C47.7083 290.064 47.773 290.146 47.8525 290.21C47.932 290.275 48.0243 290.32 48.1229 290.344C49.8516 290.761 50.7091 290.875 52.87 291.434C54.2009 291.781 56.9174 292.638 58.7559 293.112C60.5944 293.586 61.2186 291.753 60.4983 291.392C57.281 289.742 56.2314 288.354 55.3533 287.059C55.1928 286.838 54.9621 286.682 54.7016 286.62Z" fill="#263238"/>
<path d="M89.2623 289.133H84.33C84.2411 289.133 84.1549 289.165 84.0861 289.223C84.0173 289.281 83.9701 289.362 83.9527 289.452L83.2187 293.593C83.2015 293.696 83.2065 293.801 83.2332 293.901C83.2599 294.002 83.3077 294.095 83.3732 294.174C83.4387 294.253 83.5203 294.316 83.6121 294.359C83.704 294.402 83.8039 294.423 83.9047 294.422C85.6814 294.422 88.247 294.287 90.4834 294.287C93.1039 294.287 93.1519 294.429 96.2184 294.429C98.0706 294.429 98.5165 292.496 97.7344 292.305C94.1672 291.512 93.4949 291.427 90.3668 289.473C90.0357 289.258 89.6537 289.14 89.2623 289.133Z" fill="#263238"/>
<path d="M74.3487 127.228C70.0543 127.582 63.9969 138.697 63.9969 138.697L71.7762 145.968C74.1988 143.169 76.4032 140.177 78.3686 137.019C81.4213 131.971 78.7391 126.866 74.3487 127.228Z" fill="#2E7D32"/>
<path opacity="0.6" d="M74.3487 127.228C70.0543 127.582 63.9969 138.697 63.9969 138.697L71.7762 145.968C74.1988 143.169 76.4032 140.177 78.3686 137.019C81.4213 131.971 78.7391 126.866 74.3487 127.228Z" fill="#BEE7CF"/>
<path opacity="0.2" d="M76.5439 135.228L71.4057 145.607L71.7693 145.954C71.7693 145.954 73.7587 143.71 75.9745 140.616L76.5439 135.228Z" fill="black"/>
<path d="M95.8685 152.149C95.0933 157.289 93.8654 163.647 91.9789 171.478L68.0855 167.796C68.305 164.256 71.9614 148.475 71.2411 131.532C71.2156 130.968 71.3027 130.404 71.4971 129.876C71.6915 129.348 71.989 128.867 72.3712 128.463C72.7533 128.059 73.2119 127.74 73.7185 127.526C74.225 127.312 74.7688 127.208 75.3159 127.22C76.4959 127.22 77.7924 127.312 79.0684 127.44C82.4807 127.761 85.8727 128.281 89.228 128.998C91.5287 129.598 93.7809 130.382 95.9645 131.341C95.9645 131.341 97.6795 133.939 96.7534 144.751C96.5682 146.896 96.287 149.338 95.8685 152.149Z" fill="#2E7D32"/>
<path opacity="0.6" d="M95.8685 152.149C95.0933 157.289 93.8654 163.647 91.9789 171.478L68.0855 167.796C68.305 164.256 71.9614 148.475 71.2411 131.532C71.2156 130.968 71.3027 130.404 71.4971 129.876C71.6915 129.348 71.989 128.867 72.3712 128.463C72.7533 128.059 73.2119 127.74 73.7185 127.526C74.225 127.312 74.7688 127.208 75.3159 127.22C76.4959 127.22 77.7924 127.312 79.0684 127.44C82.4807 127.761 85.8727 128.281 89.228 128.998C91.5287 129.598 93.7809 130.382 95.9645 131.341C95.9645 131.341 97.6795 133.939 96.7534 144.751C96.5682 146.896 96.287 149.338 95.8685 152.149Z" fill="#BEE7CF"/>
<path opacity="0.2" d="M95.8685 152.149C93.9271 150.882 92.1092 145.069 92.9256 142.003L96.7534 144.765C96.5682 146.896 96.287 149.338 95.8685 152.149Z" fill="black"/>
<path d="M90.4971 134.52C89.2623 138.768 96.7397 151.278 96.7397 151.278L105.658 146.464C104.346 142.543 102.587 138.797 100.417 135.306C96.8426 129.876 91.924 129.72 90.4971 134.52Z" fill="#2E7D32"/>
<path opacity="0.6" d="M90.4971 134.52C89.2623 138.768 96.7397 151.278 96.7397 151.278L105.658 146.464C104.346 142.543 102.587 138.797 100.417 135.306C96.8426 129.876 91.924 129.72 90.4971 134.52Z" fill="#BEE7CF"/>
<path opacity="0.2" d="M89.3515 278.881L89.3309 284.446H84.817L84.8376 278.881H89.3515Z" fill="black"/>
<path opacity="0.2" d="M53.3639 275.66L57.5966 276.665L55.7581 282.173L51.5323 281.161L53.3639 275.66Z" fill="black"/>
<path d="M83.4519 110.759C82.1416 115.199 81.1607 117.719 82.4503 120.834C82.8506 121.854 83.5145 122.741 84.3695 123.398C85.2246 124.056 86.2381 124.458 87.2995 124.562C88.361 124.665 89.4296 124.466 90.389 123.986C91.3484 123.506 92.1617 122.764 92.7403 121.84C95.0316 118.3 96.7877 111.659 93.3646 108.197C92.6463 107.424 91.7429 106.861 90.746 106.565C89.7492 106.269 88.6942 106.25 87.6879 106.51C86.6817 106.771 85.7599 107.301 85.0161 108.047C84.2722 108.793 83.7326 109.729 83.4519 110.759Z" fill="#FF8B7B"/>
<path d="M90.3599 115.638C89.8454 117.91 88.5077 122.01 85.2149 122.484C83.3764 122.746 80.3169 122.187 80.0356 120.657C79.7544 119.128 80.8931 119.333 80.605 118.08C80.3169 116.827 78.8145 112.416 80.5227 109.329C78.1491 109.535 79.7749 105.903 84.035 105.081C82.7179 104.55 83.349 100.833 89.9209 102.603C92.9942 103.417 95.2785 104.664 95.5529 106.37C98.3518 107.588 99.0927 110.653 97.3571 111.772C95.6215 112.891 93.1108 111.63 93.1108 111.63C93.1108 111.63 94.2976 118.116 90.3599 115.638Z" fill="#263238"/>
<path d="M88.5695 115.291C88.5092 116.31 88.8117 117.317 89.4201 118.123C90.2364 119.199 90.5108 119.206 90.847 118.009C91.1557 116.933 91.9034 114.526 90.8127 113.889C89.7219 113.252 88.6655 114.052 88.5695 115.291Z" fill="#FF8B7B"/>
<path d="M83.5068 170.175C83.5068 170.175 79.7955 206.736 77.518 220.075C74.9798 234.688 58.1179 281.671 58.1179 281.671L50.078 279.617C54.194 263.333 60.2925 233.01 64.0038 221.399C66.8027 203.748 64.0038 181.559 68.1198 167.81L83.5068 170.175Z" fill="#263238"/>
<path d="M59.9907 278.952L58.5089 281.947L49.4812 279.603L50.2289 276.771L59.9907 278.952Z" fill="#2E7D32"/>
<path opacity="0.2" d="M81.2155 184.434C81.4714 184.381 81.7348 184.381 81.9907 184.434C80.8039 195.351 79.1164 209.922 77.7855 218.283C76.6742 206.134 75.6452 185.567 81.2155 184.434Z" fill="black"/>
<path d="M91.9789 171.478C91.9789 171.478 93.8517 210.545 94.1261 224.755C94.4073 239.538 90.9773 283.37 90.9773 283.37H83.3216C83.3216 283.37 80.4335 242.724 81.9907 222.9C80.1454 207.798 76.2763 169.092 76.2763 169.092L91.9789 171.478Z" fill="#263238"/>
<path d="M119.604 164.468C118.359 164.362 117.107 164.546 115.941 165.006L115.385 165.955C115.277 166.143 115.212 166.354 115.193 166.571C115.175 166.789 115.205 167.008 115.28 167.212C115.355 167.416 115.474 167.6 115.627 167.75C115.781 167.9 115.966 168.013 116.167 168.079L118.85 168.964L120.16 169.375C120.435 169.463 120.731 169.459 121.004 169.364C121.278 169.268 121.515 169.086 121.683 168.844L122.245 168.037C122.447 167.752 122.539 167.399 122.502 167.048C122.465 166.697 122.303 166.373 122.046 166.139L120.839 165.014C120.495 164.699 120.062 164.508 119.604 164.468Z" fill="#FF8B7B"/>
<path d="M92.3287 280.219L92.02 283.497H82.711L82.3543 280.573L92.3287 280.219Z" fill="#2E7D32"/>
</svg>
