<svg width="30" height="30" viewBox="0 0 30 30" fill="none" xmlns="http://www.w3.org/2000/svg">
<path d="M27.917 27.9168L21.5834 21.5833M21.5834 21.5833C22.6668 20.4999 23.5262 19.2137 24.1125 17.7982C24.6988 16.3827 25.0006 14.8656 25.0006 13.3335C25.0006 11.8013 24.6988 10.2842 24.1125 8.86872C23.5262 7.45321 22.6668 6.16706 21.5834 5.08368C20.5 4.0003 19.2139 3.14092 17.7984 2.5546C16.3829 1.96828 14.8658 1.6665 13.3336 1.6665C11.8015 1.6665 10.2844 1.96828 8.86888 2.5546C7.45337 3.14092 6.16722 4.0003 5.08384 5.08368C2.89586 7.27166 1.66666 10.2392 1.66666 13.3335C1.66666 16.4277 2.89586 19.3953 5.08384 21.5833C7.27182 23.7712 10.2394 25.0004 13.3336 25.0004C16.4279 25.0004 19.3954 23.7712 21.5834 21.5833Z" stroke="#27AE60" stroke-width="3.33333" stroke-linecap="round" stroke-linejoin="round"/>
</svg>
