<svg width="40" height="40" viewBox="0 0 40 40" fill="none" xmlns="http://www.w3.org/2000/svg">
<path d="M31.91 24.2039L29.2679 22.3107C29.7034 20.7379 29.7324 19.034 29.2679 17.3301L31.91 15.4661L29.805 11.8253L26.858 13.1651C25.7111 12 24.2594 11.0971 22.5609 10.6748L22.2706 7.45632H18.0606L17.7702 10.6748C16.0717 11.0971 14.62 12 13.4731 13.1651L10.5262 11.8253L8.42116 15.4661L11.0633 17.3301C10.5987 19.034 10.6278 20.7379 11.0633 22.3107L8.42116 24.2039L10.5262 27.8447L13.4731 26.4904C14.62 27.6409 16.0717 28.5146 17.7702 28.9661L18.0606 32.2137H22.2706L22.5609 28.9661C24.2594 28.5146 25.7111 27.6409 26.858 26.4904L29.805 27.8447L31.91 24.2039ZM23.069 6C23.461 6 23.7949 6.29126 23.7949 6.66991L24.0562 9.64079C25.1595 10.0486 26.1467 10.6456 27.0322 11.3592L29.7179 10.0922C30.0518 9.91749 30.4728 10.034 30.676 10.3689L33.5795 15.4661C33.7827 15.7719 33.6666 16.1942 33.3472 16.4127L30.9228 18.1165C31.1115 19.2816 31.097 20.4321 30.9228 21.5535L33.3472 23.2573C33.6666 23.4758 33.7827 23.8981 33.5795 24.2039L30.676 29.3011C30.4728 29.6069 30.0518 29.7234 29.7179 29.5486L27.0322 28.2962C26.1467 29.0098 25.1595 29.5923 24.0562 30.0292L23.7949 32.9418C23.7949 33.3642 23.461 33.67 23.069 33.67H17.2621C17.0696 33.67 16.885 33.5933 16.7489 33.4567C16.6127 33.3202 16.5363 33.135 16.5363 32.9418L16.275 30.0292C15.1717 29.5923 14.1845 29.0098 13.2989 28.2962L10.6133 29.5486C10.2794 29.7234 9.85836 29.6069 9.65512 29.3011L6.75168 24.2039C6.54844 23.8981 6.66458 23.4758 6.98396 23.2573L9.40833 21.5535C9.23413 20.4321 9.21961 19.2816 9.40833 18.1165L6.98396 16.4127C6.66458 16.1942 6.54844 15.7719 6.75168 15.4661L9.65512 10.3689C9.85836 10.034 10.2794 9.91749 10.6133 10.0922L13.2989 11.3592C14.1845 10.6456 15.1717 10.0486 16.275 9.64079L16.5363 6.66991C16.5363 6.29126 16.8702 6 17.2621 6H23.069ZM20.1656 14.7379C21.5131 14.7379 22.8055 15.2749 23.7584 16.2308C24.7113 17.1867 25.2466 18.4832 25.2466 19.835C25.2466 21.1868 24.7113 22.4833 23.7584 23.4392C22.8055 24.3951 21.5131 24.9321 20.1656 24.9321C18.818 24.9321 17.5256 24.3951 16.5728 23.4392C15.6199 22.4833 15.0846 21.1868 15.0846 19.835C15.0846 18.4832 15.6199 17.1867 16.5728 16.2308C17.5256 15.2749 18.818 14.7379 20.1656 14.7379ZM20.1656 16.1942C19.203 16.1942 18.2799 16.5778 17.5993 17.2606C16.9186 17.9434 16.5363 18.8694 16.5363 19.835C16.5363 20.8006 16.9186 21.7266 17.5993 22.4094C18.2799 23.0922 19.203 23.4758 20.1656 23.4758C21.1281 23.4758 22.0513 23.0922 22.7319 22.4094C23.4125 21.7266 23.7949 20.8006 23.7949 19.835C23.7949 18.8694 23.4125 17.9434 22.7319 17.2606C22.0513 16.5778 21.1281 16.1942 20.1656 16.1942Z" fill="#27AE60"/>
</svg>
