<svg width="28" height="28" viewBox="0 0 28 28" fill="none" xmlns="http://www.w3.org/2000/svg">
<path d="M25.2594 18.2039L22.6173 16.3107C23.0528 14.7379 23.0818 13.034 22.6173 11.3301L25.2594 9.46605L23.1544 5.82526L20.2074 7.16507C19.0606 6.00002 17.6089 5.09711 15.9103 4.67477L15.62 1.45632H11.41L11.1197 4.67477C9.42115 5.09711 7.96943 6.00002 6.82257 7.16507L3.87558 5.82526L1.77059 9.46605L4.41272 11.3301C3.94817 13.034 3.9772 14.7379 4.41272 16.3107L1.77059 18.2039L3.87558 21.8447L6.82257 20.4904C7.96943 21.6409 9.42115 22.5146 11.1197 22.9661L11.41 26.2137H15.62L15.9103 22.9661C17.6089 22.5146 19.0606 21.6409 20.2074 20.4904L23.1544 21.8447L25.2594 18.2039ZM16.4184 0C16.8104 0 17.1443 0.291263 17.1443 0.669905L17.4056 3.64079C18.5089 4.04856 19.4961 4.64565 20.3816 5.35924L23.0673 4.09225C23.4012 3.91749 23.8222 4.03399 24.0255 4.36895L26.9289 9.46605C27.1321 9.77188 27.016 10.1942 26.6966 10.4127L24.2722 12.1165C24.461 13.2816 24.4465 14.4321 24.2722 15.5535L26.6966 17.2573C27.016 17.4758 27.1321 17.8981 26.9289 18.2039L24.0255 23.3011C23.8222 23.6069 23.4012 23.7234 23.0673 23.5486L20.3816 22.2962C19.4961 23.0098 18.5089 23.5923 17.4056 24.0292L17.1443 26.9418C17.1443 27.3642 16.8104 27.67 16.4184 27.67H10.6116C10.4191 27.67 10.2344 27.5933 10.0983 27.4567C9.96218 27.3202 9.8857 27.135 9.8857 26.9418L9.62439 24.0292C8.52108 23.5923 7.53392 23.0098 6.64837 22.2962L3.96269 23.5486C3.62879 23.7234 3.20779 23.6069 3.00455 23.3011L0.101111 18.2039C-0.10213 17.8981 0.0140074 17.4758 0.333386 17.2573L2.75776 15.5535C2.58355 14.4321 2.56903 13.2816 2.75776 12.1165L0.333386 10.4127C0.0140074 10.1942 -0.10213 9.77188 0.101111 9.46605L3.00455 4.36895C3.20779 4.03399 3.62879 3.91749 3.96269 4.09225L6.64837 5.35924C7.53392 4.64565 8.52108 4.04856 9.62439 3.64079L9.8857 0.669905C9.8857 0.291263 10.2196 0 10.6116 0H16.4184ZM13.515 8.73789C14.8626 8.73789 16.1549 9.27491 17.1078 10.2308C18.0607 11.1867 18.596 12.4832 18.596 13.835C18.596 15.1868 18.0607 16.4833 17.1078 17.4392C16.1549 18.3951 14.8626 18.9321 13.515 18.9321C12.1674 18.9321 10.8751 18.3951 9.92218 17.4392C8.9693 16.4833 8.43398 15.1868 8.43398 13.835C8.43398 12.4832 8.9693 11.1867 9.92218 10.2308C10.8751 9.27491 12.1674 8.7379 13.515 8.73789ZM13.515 10.1942C12.5525 10.1942 11.6293 10.5778 10.9487 11.2606C10.2681 11.9434 9.8857 12.8694 9.8857 13.835C9.8857 14.8006 10.2681 15.7266 10.9487 16.4094C11.6293 17.0922 12.5525 17.4758 13.515 17.4758C14.4776 17.4758 15.4007 17.0922 16.0813 16.4094C16.7619 15.7266 17.1443 14.8006 17.1443 13.835C17.1443 12.8694 16.7619 11.9434 16.0813 11.2606C15.4007 10.5778 14.4776 10.1942 13.515 10.1942Z" fill="#AEAEAE"/>
</svg>
