<svg width="41" height="41" viewBox="0 0 41 41" fill="none" xmlns="http://www.w3.org/2000/svg">
<path d="M17.015 15.609L18.5286 10.3149C19.0958 8.3332 21.9043 8.3332 22.4714 10.3149L23.9833 15.609C24.079 15.9439 24.2585 16.2489 24.5048 16.4952C24.7511 16.7415 25.0561 16.9209 25.391 17.0167L30.6851 18.5285C32.6668 19.0957 32.6668 21.9042 30.6851 22.4714L25.391 23.9832C25.0561 24.079 24.7511 24.2584 24.5048 24.5047C24.2585 24.751 24.079 25.056 23.9833 25.3909L22.4714 30.685C21.9043 32.6667 19.0958 32.6667 18.5286 30.685L17.0167 25.3909C16.921 25.056 16.7415 24.751 16.4952 24.5047C16.2489 24.2584 15.9439 24.079 15.609 23.9832L10.3149 22.4714C8.33326 21.9042 8.33326 19.0957 10.3149 18.5285L15.609 17.0167C15.9439 16.9209 16.2489 16.7415 16.4952 16.4952C16.7415 16.2489 16.921 15.9439 17.0167 15.609" fill="#14AE5C" fill-opacity="0.16"/>
<path d="M17.015 15.6089L18.5286 10.3148C19.0957 8.33313 21.9042 8.33313 22.4714 10.3148L23.9833 15.6089C24.079 15.9438 24.2585 16.2488 24.5048 16.4951C24.7511 16.7414 25.0561 16.9209 25.391 17.0166L30.6851 18.5285C32.6667 19.0956 32.6667 21.9041 30.6851 22.4713L25.391 23.9832C25.0561 24.0789 24.7511 24.2584 24.5048 24.5047C24.2585 24.751 24.079 25.0559 23.9833 25.3908L22.4714 30.685C21.9042 32.6666 19.0957 32.6666 18.5286 30.685L17.0167 25.3908C16.921 25.0559 16.7415 24.751 16.4952 24.5047C16.2489 24.2584 15.9439 24.0789 15.609 23.9832L10.3149 22.4713C8.33325 21.9041 8.33325 19.0956 10.3149 18.5285L15.609 17.0166C15.9439 16.9209 16.2489 16.7414 16.4952 16.4951C16.7415 16.2488 16.921 15.9438 17.0167 15.6089M7.56792 7.31667L8.21025 4.74221C8.29567 4.39713 8.78767 4.39713 8.87308 4.74221L9.51712 7.31667C9.53194 7.37679 9.56281 7.43175 9.60644 7.47568C9.65007 7.51961 9.70482 7.55086 9.76483 7.56609L12.341 8.21013C12.6861 8.29554 12.6861 8.78584 12.341 8.87296L9.76483 9.517C9.70503 9.53209 9.65043 9.56308 9.60682 9.60669C9.5632 9.65031 9.53221 9.70491 9.51712 9.76471L8.87308 12.3409C8.78767 12.686 8.29567 12.686 8.21025 12.3409L7.56621 9.76471C7.55112 9.70491 7.52013 9.65031 7.47652 9.60669C7.43291 9.56308 7.3783 9.53209 7.3185 9.517L4.74233 8.87296C4.39725 8.78754 4.39725 8.29554 4.74233 8.21013L7.3185 7.56609C7.37851 7.55086 7.43326 7.51961 7.47689 7.47568C7.52052 7.43175 7.5531 7.37679 7.56792 7.31667ZM31.4846 31.235L32.1269 28.6589C32.2123 28.3138 32.7026 28.3138 32.7897 28.6589L33.4338 31.235C33.4489 31.2948 33.4799 31.3494 33.5235 31.3931C33.5671 31.4367 33.6217 31.4677 33.6815 31.4828L36.2577 32.1268C36.6027 32.2122 36.6027 32.7025 36.2577 32.7896L33.6815 33.4337C33.6217 33.4488 33.5671 33.4797 33.5235 33.5234C33.4799 33.567 33.4489 33.6216 33.4338 33.6814L32.7897 36.2575C32.7043 36.6026 32.214 36.6026 32.1269 36.2575L31.4829 33.6814C31.4678 33.6216 31.4368 33.567 31.3932 33.5234C31.3496 33.4797 31.295 33.4488 31.2352 33.4337L28.659 32.7896C28.3139 32.7042 28.3139 32.2122 28.659 32.1268L31.2352 31.4828C31.295 31.4677 31.3496 31.4367 31.3932 31.3931C31.4368 31.3494 31.4695 31.2948 31.4846 31.235Z" stroke="#27AE60" stroke-width="2.5" stroke-miterlimit="10" stroke-linecap="round" stroke-linejoin="round"/>
</svg>
