<svg width="20" height="20" viewBox="0 0 20 20" fill="none" xmlns="http://www.w3.org/2000/svg">
<path d="M8.75 6.04199C8.63949 6.04199 8.53351 6.08589 8.45537 6.16403C8.37723 6.24217 8.33333 6.34815 8.33333 6.45866C8.33333 6.56917 8.37723 6.67515 8.45537 6.75329C8.53351 6.83143 8.63949 6.87533 8.75 6.87533H11.25C11.3605 6.87533 11.4665 6.83143 11.5446 6.75329C11.6228 6.67515 11.6667 6.56917 11.6667 6.45866C11.6667 6.34815 11.6228 6.24217 11.5446 6.16403C11.4665 6.08589 11.3605 6.04199 11.25 6.04199H8.75ZM7.91667 10.6253C7.91667 10.8463 7.82887 11.0583 7.67259 11.2146C7.51631 11.3709 7.30435 11.4587 7.08333 11.4587C6.86232 11.4587 6.65036 11.3709 6.49408 11.2146C6.3378 11.0583 6.25 10.8463 6.25 10.6253C6.25 10.4043 6.3378 10.1924 6.49408 10.0361C6.65036 9.87979 6.86232 9.79199 7.08333 9.79199C7.30435 9.79199 7.51631 9.87979 7.67259 10.0361C7.82887 10.1924 7.91667 10.4043 7.91667 10.6253ZM7.91667 13.542C7.91667 13.763 7.82887 13.975 7.67259 14.1312C7.51631 14.2875 7.30435 14.3753 7.08333 14.3753C6.86232 14.3753 6.65036 14.2875 6.49408 14.1312C6.3378 13.975 6.25 13.763 6.25 13.542C6.25 13.321 6.3378 13.109 6.49408 12.9527C6.65036 12.7965 6.86232 12.7087 7.08333 12.7087C7.30435 12.7087 7.51631 12.7965 7.67259 12.9527C7.82887 13.109 7.91667 13.321 7.91667 13.542ZM10 11.4587C10.221 11.4587 10.433 11.3709 10.5893 11.2146C10.7455 11.0583 10.8333 10.8463 10.8333 10.6253C10.8333 10.4043 10.7455 10.1924 10.5893 10.0361C10.433 9.87979 10.221 9.79199 10 9.79199C9.77899 9.79199 9.56702 9.87979 9.41074 10.0361C9.25446 10.1924 9.16667 10.4043 9.16667 10.6253C9.16667 10.8463 9.25446 11.0583 9.41074 11.2146C9.56702 11.3709 9.77899 11.4587 10 11.4587ZM10.8333 13.542C10.8333 13.763 10.7455 13.975 10.5893 14.1312C10.433 14.2875 10.221 14.3753 10 14.3753C9.77899 14.3753 9.56702 14.2875 9.41074 14.1312C9.25446 13.975 9.16667 13.763 9.16667 13.542C9.16667 13.321 9.25446 13.109 9.41074 12.9527C9.56702 12.7965 9.77899 12.7087 10 12.7087C10.221 12.7087 10.433 12.7965 10.5893 12.9527C10.7455 13.109 10.8333 13.321 10.8333 13.542ZM12.9167 11.4587C13.1377 11.4587 13.3496 11.3709 13.5059 11.2146C13.6622 11.0583 13.75 10.8463 13.75 10.6253C13.75 10.4043 13.6622 10.1924 13.5059 10.0361C13.3496 9.87979 13.1377 9.79199 12.9167 9.79199C12.6957 9.79199 12.4837 9.87979 12.3274 10.0361C12.1711 10.1924 12.0833 10.4043 12.0833 10.6253C12.0833 10.8463 12.1711 11.0583 12.3274 11.2146C12.4837 11.3709 12.6957 11.4587 12.9167 11.4587Z" fill="#27AE60"/>
<path fill-rule="evenodd" clip-rule="evenodd" d="M6.66667 2.91699C6.77717 2.91699 6.88315 2.96089 6.96129 3.03903C7.03943 3.11717 7.08333 3.22315 7.08333 3.33366V4.16699H12.9167V3.33366C12.9167 3.22315 12.9606 3.11717 13.0387 3.03903C13.1168 2.96089 13.2228 2.91699 13.3333 2.91699C13.4438 2.91699 13.5498 2.96089 13.628 3.03903C13.7061 3.11717 13.75 3.22315 13.75 3.33366V4.16949C13.9539 4.17116 14.1356 4.17838 14.295 4.19116C14.5992 4.21616 14.8658 4.26866 15.1125 4.39366C15.5044 4.59357 15.8229 4.91241 16.0225 5.30449C16.1483 5.55116 16.2008 5.81783 16.2258 6.12116C16.25 6.41699 16.25 6.78116 16.25 7.23283V13.6012C16.25 14.0528 16.25 14.4178 16.2258 14.712C16.2008 15.0162 16.1483 15.2828 16.0225 15.5295C15.8228 15.9213 15.5043 16.2398 15.1125 16.4395C14.8658 16.5653 14.5992 16.6178 14.2958 16.6428C14 16.667 13.6358 16.667 13.185 16.667H6.81583C6.36417 16.667 5.99917 16.667 5.705 16.6428C5.40083 16.6178 5.13417 16.5653 4.8875 16.4395C4.49542 16.2399 4.17658 15.9214 3.97667 15.5295C3.85167 15.2828 3.79917 15.0162 3.77417 14.7128C3.75 14.417 3.75 14.052 3.75 13.6003V7.23366C3.75 6.83783 3.75 6.51033 3.76667 6.23616L3.77417 6.12283C3.79917 5.81866 3.85167 5.55199 3.97667 5.30533C4.17644 4.91312 4.49529 4.59426 4.8875 4.39449C5.13417 4.26949 5.40083 4.21699 5.70417 4.19199C5.86472 4.17921 6.04667 4.17199 6.25 4.17033V3.33366C6.25 3.22315 6.2939 3.11717 6.37204 3.03903C6.45018 2.96089 6.55616 2.91699 6.66667 2.91699ZM6.25 5.41699V5.00283C6.09067 5.00414 5.93142 5.01053 5.7725 5.02199C5.52083 5.04199 5.37583 5.08033 5.26583 5.13616C5.03042 5.25604 4.83904 5.44741 4.71917 5.68283C4.66333 5.79283 4.625 5.93783 4.605 6.18949C4.58333 6.44699 4.58333 6.77699 4.58333 7.25033V7.70866H15.4167V7.25033C15.4167 6.77699 15.4167 6.44699 15.395 6.18949C15.375 5.93783 15.3367 5.79283 15.2808 5.68283C15.161 5.44741 14.9696 5.25604 14.7342 5.13616C14.6242 5.08033 14.4792 5.04199 14.2275 5.02199C14.0686 5.01053 13.9093 5.00414 13.75 5.00283V5.41699C13.75 5.5275 13.7061 5.63348 13.628 5.71162C13.5498 5.78976 13.4438 5.83366 13.3333 5.83366C13.2228 5.83366 13.1168 5.78976 13.0387 5.71162C12.9606 5.63348 12.9167 5.5275 12.9167 5.41699V5.00033H7.08333V5.41699C7.08333 5.5275 7.03943 5.63348 6.96129 5.71162C6.88315 5.78976 6.77717 5.83366 6.66667 5.83366C6.55616 5.83366 6.45018 5.78976 6.37204 5.71162C6.2939 5.63348 6.25 5.5275 6.25 5.41699ZM15.4167 8.54199H4.58333V13.5837C4.58333 14.057 4.58333 14.3878 4.605 14.6445C4.625 14.8962 4.66333 15.0412 4.71917 15.1512C4.83904 15.3866 5.03042 15.5779 5.26583 15.6978C5.37583 15.7537 5.52083 15.792 5.7725 15.812C6.03 15.8337 6.36 15.8337 6.83333 15.8337H13.1667C13.64 15.8337 13.9708 15.8337 14.2275 15.812C14.4792 15.792 14.6242 15.7537 14.7342 15.6978C14.9696 15.5779 15.161 15.3866 15.2808 15.1512C15.3367 15.0412 15.375 14.8962 15.395 14.6445C15.4167 14.3878 15.4167 14.057 15.4167 13.5837V8.54199Z" fill="#27AE60"/>
</svg>
