<svg width="73" height="64" viewBox="0 0 73 64" fill="none" xmlns="http://www.w3.org/2000/svg">
<path d="M3.39469 63.3C2.74469 63.3 2.16969 63.1458 1.66969 62.8375C1.16969 62.5291 0.780797 62.1222 0.503019 61.6166C0.203019 61.1194 0.0363527 60.5819 0.00301932 60.0041C-0.0247585 59.4236 0.139131 58.8389 0.494686 58.25L33.2864 1.68333C33.6419 1.09444 34.0697 0.666665 34.5697 0.399999C35.0697 0.133332 35.6141 0 36.203 0C36.7919 0 37.335 0.133332 37.8322 0.399999C38.3294 0.666665 38.7572 1.09444 39.1155 1.68333L71.9114 58.25C72.2669 58.8389 72.4294 59.4222 72.3989 60C72.3711 60.5833 72.2044 61.1222 71.8989 61.6166C71.6211 62.1222 71.2322 62.5291 70.7322 62.8375C70.2322 63.1458 69.6586 63.3 69.0114 63.3H3.39469ZM4.74469 59.1333H67.6614L36.203 4.96666L4.74469 59.1333ZM36.203 53.3666C36.9308 53.3666 37.5405 53.1208 38.0322 52.6291C38.5239 52.1375 38.7683 51.5277 38.7655 50.8C38.7627 50.0722 38.5169 49.4639 38.028 48.975C37.5391 48.4861 36.9308 48.2389 36.203 48.2333C35.4752 48.2278 34.8669 48.4736 34.378 48.9708C33.8891 49.468 33.6433 50.0778 33.6405 50.8C33.6377 51.5222 33.8836 52.1319 34.378 52.6291C34.8725 53.1264 35.4808 53.3722 36.203 53.3666ZM36.203 44.0708C36.7975 44.0708 37.2933 43.8708 37.6905 43.4708C38.0877 43.0708 38.2864 42.5764 38.2864 41.9875V25.3208C38.2864 24.7292 38.0864 24.2333 37.6864 23.8333C37.2864 23.4333 36.7905 23.2347 36.1989 23.2375C35.6072 23.2403 35.1127 23.4389 34.7155 23.8333C34.3183 24.2278 34.1197 24.7236 34.1197 25.3208V41.9875C34.1197 42.5764 34.3197 43.0708 34.7197 43.4708C35.1197 43.8708 35.6155 44.0708 36.2072 44.0708" fill="#FFC107"/>
</svg>
