<svg width="35" height="35" viewBox="0 0 35 35" fill="none" xmlns="http://www.w3.org/2000/svg">
<path d="M17.5 35C22.1413 35 26.5925 33.1563 29.8744 29.8744C33.1563 26.5925 35 22.1413 35 17.5C35 12.8587 33.1563 8.40752 29.8744 5.12563C26.5925 1.84374 22.1413 0 17.5 0C12.8587 0 8.40752 1.84374 5.12563 5.12563C1.84374 8.40752 0 12.8587 0 17.5C0 22.1413 1.84374 26.5925 5.12563 29.8744C8.40752 33.1563 12.8587 35 17.5 35ZM29.0719 27.5275L21.0656 19.5191C22.9688 18.6441 24.0625 16.7563 24.0625 14.4069C24.0625 11.165 21.9734 8.75437 18.5106 8.75437H12.0312V10.4825L7.4725 5.92812C10.399 3.39427 14.1766 2.06285 18.0451 2.20176C21.9136 2.34066 25.586 3.9396 28.3232 6.67682C31.0604 9.41404 32.6593 13.0864 32.7982 16.9549C32.9372 20.8234 31.6057 24.601 29.0719 27.5275ZM27.5275 29.0741C24.601 31.6079 20.8234 32.9393 16.9549 32.8004C13.0864 32.6615 9.41404 31.0626 6.67682 28.3254C3.9396 25.5881 2.34066 21.9158 2.20176 18.0473C2.06285 14.1788 3.39427 10.4012 5.92812 7.47469L12.0312 13.5778V26.25H14.8378V20.0462H18.4997L27.5275 29.0741ZM19.0881 17.5416L14.8247 13.2781V11.165H18.0906C20.0441 11.165 21.1947 12.3441 21.1947 14.4069C21.1947 16.0891 20.4291 17.1916 19.0881 17.5416ZM14.8247 16.3734L16.1153 17.6641H14.8247V16.3734Z" fill="#14AE5C"/>
</svg>
