<svg width="29" height="26" viewBox="0 0 29 26" fill="none" xmlns="http://www.w3.org/2000/svg">
<path d="M1.35787 25.32C1.09787 25.32 0.867874 25.2583 0.667874 25.135C0.467874 25.0117 0.312319 24.8489 0.201208 24.6467C0.0812075 24.4478 0.0145411 24.2328 0.00120773 24.0017C-0.00990338 23.7694 0.0556522 23.5356 0.197874 23.3L13.3145 0.673333C13.4568 0.437777 13.6279 0.266666 13.8279 0.16C14.0279 0.0533329 14.2457 0 14.4812 0C14.7168 0 14.934 0.0533329 15.1329 0.16C15.3318 0.266666 15.5029 0.437777 15.6462 0.673333L28.7645 23.3C28.9068 23.5356 28.9718 23.7689 28.9595 24C28.9484 24.2333 28.8818 24.4489 28.7595 24.6467C28.6484 24.8489 28.4929 25.0117 28.2929 25.135C28.0929 25.2583 27.8634 25.32 27.6045 25.32H1.35787ZM14.4812 21.3467C14.7723 21.3467 15.0162 21.2483 15.2129 21.0517C15.4095 20.855 15.5073 20.6111 15.5062 20.32C15.5051 20.0289 15.4068 19.7856 15.2112 19.59C15.0157 19.3944 14.7723 19.2956 14.4812 19.2933C14.1901 19.2911 13.9468 19.3894 13.7512 19.5883C13.5557 19.7872 13.4573 20.0311 13.4562 20.32C13.4551 20.6089 13.5534 20.8528 13.7512 21.0517C13.949 21.2506 14.1923 21.3489 14.4812 21.3467ZM14.4812 17.6283C14.719 17.6283 14.9173 17.5483 15.0762 17.3883C15.2351 17.2283 15.3145 17.0306 15.3145 16.795V10.1283C15.3145 9.89167 15.2345 9.69333 15.0745 9.53333C14.9145 9.37333 14.7162 9.29389 14.4795 9.295C14.2429 9.29611 14.0451 9.37556 13.8862 9.53333C13.7273 9.69111 13.6479 9.88944 13.6479 10.1283V16.795C13.6479 17.0306 13.7279 17.2283 13.8879 17.3883C14.0479 17.5483 14.2462 17.6283 14.4829 17.6283" fill="#27AE60"/>
</svg>
