<svg width="25" height="33" viewBox="0 0 25 33" fill="none" xmlns="http://www.w3.org/2000/svg">
<path d="M12.5003 13.75C11.1405 13.75 9.81133 13.3468 8.68074 12.5914C7.55015 11.8359 6.66896 10.7622 6.14861 9.50595C5.62826 8.24971 5.49211 6.86738 5.75738 5.53376C6.02266 4.20014 6.67744 2.97513 7.63892 2.01364C8.60041 1.05216 9.82542 0.397378 11.159 0.132104C12.4927 -0.133169 13.875 0.00297885 15.1312 0.523331C16.3875 1.04368 17.4612 1.92487 18.2166 3.05546C18.9721 4.18605 19.3753 5.51526 19.3753 6.875C19.3732 8.69773 18.6482 10.4452 17.3594 11.7341C16.0705 13.0229 14.323 13.7479 12.5003 13.75ZM23.7503 30H4.55653L23.3268 13.4375C23.3903 13.3815 23.4479 13.3192 23.4987 13.2516C23.67 13.0231 23.7587 12.7433 23.7503 12.4578C23.7424 12.2209 23.6672 11.9911 23.5337 11.7953C23.4001 11.5994 23.2136 11.4456 22.9959 11.3517C22.7782 11.2579 22.5383 11.2279 22.3042 11.2652C22.0701 11.3025 21.8514 11.4056 21.6737 11.5625L17.8393 14.9453C16.0868 14.1169 14.1656 13.7074 12.2276 13.7492C10.2896 13.7911 8.38786 14.2831 6.6727 15.1863C4.95754 16.0896 3.47597 17.3794 2.34506 18.9538C1.21415 20.5282 0.464907 22.344 0.156532 24.2578C0.14737 24.3147 0.14215 24.3721 0.140908 24.4297L0.00028228 31.2234C-0.00325397 31.3898 0.0264658 31.5552 0.0876991 31.71C0.148932 31.8647 0.240446 32.0056 0.356874 32.1245C0.473301 32.2434 0.612297 32.3379 0.765712 32.4024C0.919127 32.4669 1.08387 32.5 1.25028 32.5H23.7503C24.0818 32.5 24.3997 32.3683 24.6342 32.1339C24.8686 31.8995 25.0003 31.5815 25.0003 31.25C25.0003 30.9185 24.8686 30.6005 24.6342 30.3661C24.3997 30.1317 24.0818 30 23.7503 30ZM21.894 18.5938C21.7191 18.5726 21.5416 18.5887 21.3733 18.6409C21.205 18.6931 21.0497 18.7804 20.9175 18.8969L11.1675 27.5H23.7503C24.0818 27.5 24.3997 27.3683 24.6342 27.1339C24.8686 26.8995 25.0003 26.5815 25.0003 26.25C25.0049 23.7016 24.2265 21.2134 22.7706 19.1219C22.67 18.977 22.5399 18.855 22.3888 18.764C22.2378 18.673 22.0691 18.615 21.894 18.5938Z" fill="#27AE60"/>
</svg>
